<?xml version="1.0" encoding="UTF-8"?>
<!-- Generator: visioncortex VTracer 0.6.1 -->
<svg version="1.1" xmlns="http://www.w3.org/2000/svg" width="1280" height="1280">
<path d="M0 0 C0.76368896 0.04713135 1.52737793 0.0942627 2.31420898 0.14282227 C3.18158691 0.19124268 4.04896484 0.23966309 4.94262695 0.28955078 C5.88895996 0.34554443 6.83529297 0.40153809 7.81030273 0.45922852 C19.96071957 1.1061304 32.08357127 1.1258469 44.24780273 1.02172852 C44.24780273 1.68172852 44.24780273 2.34172852 44.24780273 3.02172852 C45.13983398 2.99852539 46.03186523 2.97532227 46.95092773 2.95141602 C48.12139648 2.93336914 49.29186523 2.91532227 50.49780273 2.89672852 C52.23803711 2.86192383 52.23803711 2.86192383 54.01342773 2.82641602 C57.19818492 3.01873227 58.50664442 3.60100622 61.24780273 5.02172852 C63.89240917 5.22629884 63.89240917 5.22629884 66.74780273 5.08422852 C72.97142574 4.96926011 79.0580337 5.40714152 85.24780273 6.02172852 C85.24780273 6.35172852 85.24780273 6.68172852 85.24780273 7.02172852 C83.59780273 7.35172852 81.94780273 7.68172852 80.24780273 8.02172852 C86.18780273 8.35172852 92.12780273 8.68172852 98.24780273 9.02172852 C98.24780273 9.68172852 98.24780273 10.34172852 98.24780273 11.02172852 C100.22780273 11.35172852 102.20780273 11.68172852 104.24780273 12.02172852 C104.24780273 12.35172852 104.24780273 12.68172852 104.24780273 13.02172852 C105.34092773 12.98047852 106.43405273 12.93922852 107.56030273 12.89672852 C111.24780273 13.02172852 111.24780273 13.02172852 114.24780273 15.02172852 C116.2406621 15.39538965 118.24143802 15.72913366 120.24780273 16.02172852 C121.23780273 16.35172852 122.22780273 16.68172852 123.24780273 17.02172852 C123.24780273 17.68172852 123.24780273 18.34172852 123.24780273 19.02172852 C124.32030273 18.81547852 125.39280273 18.60922852 126.49780273 18.39672852 C130.2989169 18.0166171 131.12276843 18.23599463 134.24780273 20.02172852 C135.23780273 19.69172852 136.22780273 19.36172852 137.24780273 19.02172852 C137.24780273 19.68172852 137.24780273 20.34172852 137.24780273 21.02172852 C137.90780273 21.35172852 138.56780273 21.68172852 139.24780273 22.02172852 C139.24780273 22.68172852 139.24780273 23.34172852 139.24780273 24.02172852 C142.21780273 24.02172852 145.18780273 24.02172852 148.24780273 24.02172852 C148.57780273 24.68172852 148.90780273 25.34172852 149.24780273 26.02172852 C151.77513508 26.67727971 151.77513508 26.67727971 154.24780273 27.02172852 C154.24780273 27.68172852 154.24780273 28.34172852 154.24780273 29.02172852 C155.19655273 29.00110352 156.14530273 28.98047852 157.12280273 28.95922852 C160.24780273 29.02172852 160.24780273 29.02172852 162.24780273 30.02172852 C162.24780273 30.68172852 162.24780273 31.34172852 162.24780273 32.02172852 C164.22780273 32.02172852 166.20780273 32.02172852 168.24780273 32.02172852 C168.24780273 32.68172852 168.24780273 33.34172852 168.24780273 34.02172852 C170.55780273 34.35172852 172.86780273 34.68172852 175.24780273 35.02172852 C175.24780273 35.68172852 175.24780273 36.34172852 175.24780273 37.02172852 C176.05217773 37.00110352 176.85655273 36.98047852 177.68530273 36.95922852 C180.24780273 37.02172852 180.24780273 37.02172852 181.24780273 38.02172852 C181.90780273 37.69172852 182.56780273 37.36172852 183.24780273 37.02172852 C183.24780273 38.01172852 183.24780273 39.00172852 183.24780273 40.02172852 C184.15530273 40.12485352 185.06280273 40.22797852 185.99780273 40.33422852 C189.36319415 41.04613824 190.60044483 41.9721611 193.24780273 44.02172852 C195.89715095 44.73605972 195.89715095 44.73605972 198.24780273 45.02172852 C198.24780273 45.68172852 198.24780273 46.34172852 198.24780273 47.02172852 C199.89780273 47.02172852 201.54780273 47.02172852 203.24780273 47.02172852 C203.57780273 47.68172852 203.90780273 48.34172852 204.24780273 49.02172852 C206.5531311 50.32808126 208.72351496 51.18029926 211.24780273 52.02172852 C211.24780273 53.01172852 211.24780273 54.00172852 211.24780273 55.02172852 C213.88780273 55.02172852 216.52780273 55.02172852 219.24780273 55.02172852 C219.24780273 55.68172852 219.24780273 56.34172852 219.24780273 57.02172852 C219.90780273 57.35172852 220.56780273 57.68172852 221.24780273 58.02172852 C221.24780273 58.68172852 221.24780273 59.34172852 221.24780273 60.02172852 C222.89780273 60.02172852 224.54780273 60.02172852 226.24780273 60.02172852 C226.24780273 60.68172852 226.24780273 61.34172852 226.24780273 62.02172852 C228.72280273 62.51672852 228.72280273 62.51672852 231.24780273 63.02172852 C231.24780273 63.68172852 231.24780273 64.34172852 231.24780273 65.02172852 C233.72280273 65.51672852 233.72280273 65.51672852 236.24780273 66.02172852 C236.24780273 66.68172852 236.24780273 67.34172852 236.24780273 68.02172852 C237.17592773 68.23829102 237.17592773 68.23829102 238.12280273 68.45922852 C240.24780273 69.02172852 240.24780273 69.02172852 242.24780273 70.02172852 C242.24780273 70.68172852 242.24780273 71.34172852 242.24780273 72.02172852 C243.17592773 72.10422852 244.10405273 72.18672852 245.06030273 72.27172852 C248.76652229 73.14378018 249.23646992 73.95684042 251.24780273 77.02172852 C252.23780273 77.35172852 253.22780273 77.68172852 254.24780273 78.02172852 C254.57780273 78.68172852 254.90780273 79.34172852 255.24780273 80.02172852 C255.90780273 80.02172852 256.56780273 80.02172852 257.24780273 80.02172852 C257.24780273 81.01172852 257.24780273 82.00172852 257.24780273 83.02172852 C258.01092773 83.14547852 258.77405273 83.26922852 259.56030273 83.39672852 C262.24780273 84.02172852 262.24780273 84.02172852 265.24780273 86.02172852 C265.24780273 86.68172852 265.24780273 87.34172852 265.24780273 88.02172852 C266.39249023 88.14547852 266.39249023 88.14547852 267.56030273 88.27172852 C270.80990191 89.1785934 271.44145211 90.26919424 273.24780273 93.02172852 C273.90780273 93.35172852 274.56780273 93.68172852 275.24780273 94.02172852 C275.24780273 94.68172852 275.24780273 95.34172852 275.24780273 96.02172852 C277.72280273 96.51672852 277.72280273 96.51672852 280.24780273 97.02172852 C280.24780273 97.68172852 280.24780273 98.34172852 280.24780273 99.02172852 C282.72280273 100.01172852 282.72280273 100.01172852 285.24780273 101.02172852 C285.24780273 102.01172852 285.24780273 103.00172852 285.24780273 104.02172852 C286.23780273 104.02172852 287.22780273 104.02172852 288.24780273 104.02172852 C288.24780273 104.68172852 288.24780273 105.34172852 288.24780273 106.02172852 C288.90780273 106.02172852 289.56780273 106.02172852 290.24780273 106.02172852 C291.95773707 107.64397391 293.62127957 109.31586276 295.24780273 111.02172852 C295.84592773 111.57860352 296.44405273 112.13547852 297.06030273 112.70922852 C298.24780273 114.02172852 298.24780273 114.02172852 298.24780273 116.02172852 C299.23780273 116.35172852 300.22780273 116.68172852 301.24780273 117.02172852 C301.24780273 117.68172852 301.24780273 118.34172852 301.24780273 119.02172852 C302.56780273 119.02172852 303.88780273 119.02172852 305.24780273 119.02172852 C306.99780273 120.39672852 306.99780273 120.39672852 308.24780273 122.02172852 C308.24780273 122.68172852 308.24780273 123.34172852 308.24780273 124.02172852 C309.17592773 124.42391602 309.17592773 124.42391602 310.12280273 124.83422852 C312.24780273 126.02172852 312.24780273 126.02172852 314.24780273 129.02172852 C314.90780273 129.02172852 315.56780273 129.02172852 316.24780273 129.02172852 C316.24780273 130.01172852 316.24780273 131.00172852 316.24780273 132.02172852 C316.90780273 132.02172852 317.56780273 132.02172852 318.24780273 132.02172852 C318.24780273 132.68172852 318.24780273 133.34172852 318.24780273 134.02172852 C319.23780273 134.35172852 320.22780273 134.68172852 321.24780273 135.02172852 C321.24780273 135.68172852 321.24780273 136.34172852 321.24780273 137.02172852 C321.90780273 137.02172852 322.56780273 137.02172852 323.24780273 137.02172852 C326.24780273 141.4063439 326.24780273 141.4063439 326.24780273 144.02172852 C327.23780273 144.35172852 328.22780273 144.68172852 329.24780273 145.02172852 C330.93512551 147.00433277 332.60146331 149.00496272 334.24780273 151.02172852 C335.23780273 151.68172852 336.22780273 152.34172852 337.24780273 153.02172852 C338.43530273 155.14672852 338.43530273 155.14672852 339.24780273 157.02172852 C339.90780273 157.02172852 340.56780273 157.02172852 341.24780273 157.02172852 C343.19311523 159.13891602 343.19311523 159.13891602 345.37280273 161.89672852 C346.09725586 162.80165039 346.82170898 163.70657227 347.56811523 164.63891602 C349.24780273 167.02172852 349.24780273 167.02172852 349.24780273 169.02172852 C350.23780273 169.68172852 351.22780273 170.34172852 352.24780273 171.02172852 C352.24780273 171.68172852 352.24780273 172.34172852 352.24780273 173.02172852 C352.90780273 173.35172852 353.56780273 173.68172852 354.24780273 174.02172852 C354.87280273 176.08422852 354.87280273 176.08422852 355.24780273 178.02172852 C355.90780273 178.02172852 356.56780273 178.02172852 357.24780273 178.02172852 C357.24780273 178.68172852 357.24780273 179.34172852 357.24780273 180.02172852 C357.90780273 180.02172852 358.56780273 180.02172852 359.24780273 180.02172852 C361.28949758 182.92721734 362.24780273 184.42314897 362.24780273 188.02172852 C363.23780273 188.35172852 364.22780273 188.68172852 365.24780273 189.02172852 C364.91780273 189.68172852 364.58780273 190.34172852 364.24780273 191.02172852 C365.23780273 191.02172852 366.22780273 191.02172852 367.24780273 191.02172852 C367.24780273 192.34172852 367.24780273 193.66172852 367.24780273 195.02172852 C367.90780273 195.02172852 368.56780273 195.02172852 369.24780273 195.02172852 C372.30538327 197.41461763 373.68755489 200.52974525 375.24780273 204.02172852 C375.24780273 204.68172852 375.24780273 205.34172852 375.24780273 206.02172852 C375.90780273 206.35172852 376.56780273 206.68172852 377.24780273 207.02172852 C376.91780273 207.68172852 376.58780273 208.34172852 376.24780273 209.02172852 C376.90780273 209.02172852 377.56780273 209.02172852 378.24780273 209.02172852 C378.24780273 209.68172852 378.24780273 210.34172852 378.24780273 211.02172852 C378.90780273 211.02172852 379.56780273 211.02172852 380.24780273 211.02172852 C380.24780273 212.01172852 380.24780273 213.00172852 380.24780273 214.02172852 C380.90780273 214.02172852 381.56780273 214.02172852 382.24780273 214.02172852 C382.43342773 214.94985352 382.43342773 214.94985352 382.62280273 215.89672852 C383.1197763 218.21293683 383.1197763 218.21293683 385.24780273 220.02172852 C385.24780273 221.34172852 385.24780273 222.66172852 385.24780273 224.02172852 C385.90780273 224.02172852 386.56780273 224.02172852 387.24780273 224.02172852 C387.57780273 225.67172852 387.90780273 227.32172852 388.24780273 229.02172852 C388.90780273 229.02172852 389.56780273 229.02172852 390.24780273 229.02172852 C390.24780273 230.67172852 390.24780273 232.32172852 390.24780273 234.02172852 C391.23780273 234.35172852 392.22780273 234.68172852 393.24780273 235.02172852 C393.24780273 236.34172852 393.24780273 237.66172852 393.24780273 239.02172852 C393.90780273 239.35172852 394.56780273 239.68172852 395.24780273 240.02172852 C395.87280273 242.08422852 395.87280273 242.08422852 396.24780273 244.02172852 C396.90780273 244.02172852 397.56780273 244.02172852 398.24780273 244.02172852 C398.24780273 245.67172852 398.24780273 247.32172852 398.24780273 249.02172852 C398.90780273 249.02172852 399.56780273 249.02172852 400.24780273 249.02172852 C401.06697916 250.7477423 401.87786289 252.47769321 402.68530273 254.20922852 C403.13776367 255.1721582 403.59022461 256.13508789 404.05639648 257.12719727 C405.15161696 259.78804438 405.7973507 262.18957606 406.24780273 265.02172852 C406.90780273 265.02172852 407.56780273 265.02172852 408.24780273 265.02172852 C408.24780273 266.67172852 408.24780273 268.32172852 408.24780273 270.02172852 C408.90780273 270.02172852 409.56780273 270.02172852 410.24780273 270.02172852 C410.57780273 272.33172852 410.90780273 274.64172852 411.24780273 277.02172852 C411.90780273 277.02172852 412.56780273 277.02172852 413.24780273 277.02172852 C413.24780273 279.00172852 413.24780273 280.98172852 413.24780273 283.02172852 C413.90780273 283.02172852 414.56780273 283.02172852 415.24780273 283.02172852 C415.57780273 285.66172852 415.90780273 288.30172852 416.24780273 291.02172852 C416.90780273 291.02172852 417.56780273 291.02172852 418.24780273 291.02172852 C418.24780273 293.33172852 418.24780273 295.64172852 418.24780273 298.02172852 C418.90780273 298.02172852 419.56780273 298.02172852 420.24780273 298.02172852 C421.06171529 300.60462444 421.87398203 303.18801849 422.68530273 305.77172852 C423.03044922 306.86614258 423.03044922 306.86614258 423.38256836 307.98266602 C423.60493164 308.69165039 423.82729492 309.40063477 424.05639648 310.13110352 C424.26063232 310.78046875 424.46486816 311.42983398 424.67529297 312.09887695 C425.80024074 315.87716636 426.35798503 319.05516582 426.24780273 323.02172852 C426.90780273 323.02172852 427.56780273 323.02172852 428.24780273 323.02172852 C428.44311523 325.03995768 428.63842773 327.05818685 428.83374023 329.07641602 C429.11155023 331.24841097 429.11155023 331.24841097 431.24780273 333.02172852 C431.44311523 335.18579102 431.44311523 335.18579102 431.37280273 337.64672852 C431.35475586 338.46399414 431.33670898 339.28125977 431.31811523 340.12329102 C431.28331055 341.06301758 431.28331055 341.06301758 431.24780273 342.02172852 C431.90780273 342.02172852 432.56780273 342.02172852 433.24780273 342.02172852 C433.44116211 343.13290039 433.63452148 344.24407227 433.83374023 345.38891602 C435.70994488 356.13919995 435.70994488 356.13919995 437.81811523 366.84594727 C440.67316061 381.30285886 441.46993482 395.98744045 441.90600586 410.68481445 C442.06191789 415.80922922 442.2985293 420.88896872 442.77514648 425.99438477 C443.87188577 438.57216666 443.0797063 451.18716512 442.43530273 463.77172852 C442.39211914 464.62568207 442.34893555 465.47963562 442.30444336 466.35946655 C441.43105792 483.2886272 440.14992554 500.14536871 436.70727539 516.77392578 C436.12626142 519.61632514 435.64649854 522.47016378 435.18530273 525.33422852 C434.60704482 528.9136928 433.97882243 532.47013725 433.24780273 536.02172852 C432.58780273 536.02172852 431.92780273 536.02172852 431.24780273 536.02172852 C431.34061523 537.38297852 431.34061523 537.38297852 431.43530273 538.77172852 C431.46984477 544.35602428 429.72134582 549.68013483 428.24780273 555.02172852 C427.58780273 555.02172852 426.92780273 555.02172852 426.24780273 555.02172852 C426.34061523 556.47579102 426.34061523 556.47579102 426.43530273 557.95922852 C426.46406154 562.63732798 424.8955148 566.69648433 423.24780273 571.02172852 C422.25780273 570.69172852 421.26780273 570.36172852 420.24780273 570.02172852 C420.45405273 571.11485352 420.66030273 572.20797852 420.87280273 573.33422852 C421.24780273 577.02172852 421.24780273 577.02172852 419.24780273 580.02172852 C419.08280273 581.19735352 418.91780273 582.37297852 418.74780273 583.58422852 C418.24780273 587.02172852 418.24780273 587.02172852 416.24780273 589.02172852 C415.85016011 591.00994165 415.51004925 593.01117191 415.24780273 595.02172852 C414.58780273 595.02172852 413.92780273 595.02172852 413.24780273 595.02172852 C413.24780273 597.00172852 413.24780273 598.98172852 413.24780273 601.02172852 C412.58780273 601.02172852 411.92780273 601.02172852 411.24780273 601.02172852 C410.91780273 603.33172852 410.58780273 605.64172852 410.24780273 608.02172852 C409.58780273 608.02172852 408.92780273 608.02172852 408.24780273 608.02172852 C408.24780273 609.67172852 408.24780273 611.32172852 408.24780273 613.02172852 C407.58780273 613.02172852 406.92780273 613.02172852 406.24780273 613.02172852 C405.91780273 615.00172852 405.58780273 616.98172852 405.24780273 619.02172852 C404.58780273 619.02172852 403.92780273 619.02172852 403.24780273 619.02172852 C403.24780273 620.67172852 403.24780273 622.32172852 403.24780273 624.02172852 C402.58780273 624.35172852 401.92780273 624.68172852 401.24780273 625.02172852 C400.59566982 627.04636107 400.59566982 627.04636107 400.24780273 629.02172852 C399.58780273 629.02172852 398.92780273 629.02172852 398.24780273 629.02172852 C398.06217773 630.10454102 398.06217773 630.10454102 397.87280273 631.20922852 C397.25730964 633.97894746 396.36335899 636.41876391 395.24780273 639.02172852 C394.58780273 639.02172852 393.92780273 639.02172852 393.24780273 639.02172852 C392.91780273 640.67172852 392.58780273 642.32172852 392.24780273 644.02172852 C391.58780273 644.02172852 390.92780273 644.02172852 390.24780273 644.02172852 C389.23603474 646.0452645 388.76459532 647.82536003 388.24780273 650.02172852 C387.9144694 651.35506185 387.58113607 652.68839518 387.24780273 654.02172852 C386.58780273 654.02172852 385.92780273 654.02172852 385.24780273 654.02172852 C385.34061523 655.16641602 385.34061523 655.16641602 385.43530273 656.33422852 C385.24780273 659.02172852 385.24780273 659.02172852 383.87280273 660.83422852 C382.24780273 662.02172852 382.24780273 662.02172852 380.24780273 662.02172852 C380.24780273 663.67172852 380.24780273 665.32172852 380.24780273 667.02172852 C379.58780273 667.02172852 378.92780273 667.02172852 378.24780273 667.02172852 C377.91780273 668.67172852 377.58780273 670.32172852 377.24780273 672.02172852 C376.58780273 672.02172852 375.92780273 672.02172852 375.24780273 672.02172852 C374.91780273 673.01172852 374.58780273 674.00172852 374.24780273 675.02172852 C373.58780273 675.35172852 372.92780273 675.68172852 372.24780273 676.02172852 C370.94144999 678.32705689 370.08923199 680.49744074 369.24780273 683.02172852 C368.58780273 683.02172852 367.92780273 683.02172852 367.24780273 683.02172852 C366.04152266 685.35386999 365.08232894 687.5181499 364.24780273 690.02172852 C363.25780273 690.35172852 362.26780273 690.68172852 361.24780273 691.02172852 C361.57780273 691.68172852 361.90780273 692.34172852 362.24780273 693.02172852 C361.58780273 693.02172852 360.92780273 693.02172852 360.24780273 693.02172852 C360.16530273 693.59922852 360.08280273 694.17672852 359.99780273 694.77172852 C359.04367139 697.63412256 357.36194895 698.9075823 355.24780273 701.02172852 C354.46053493 703.15992512 354.46053493 703.15992512 354.24780273 705.02172852 C353.58780273 705.02172852 352.92780273 705.02172852 352.24780273 705.02172852 C352.24780273 705.68172852 352.24780273 706.34172852 352.24780273 707.02172852 C351.58780273 707.35172852 350.92780273 707.68172852 350.24780273 708.02172852 C349.91780273 709.01172852 349.58780273 710.00172852 349.24780273 711.02172852 C348.58780273 711.02172852 347.92780273 711.02172852 347.24780273 711.02172852 C347.24780273 711.68172852 347.24780273 712.34172852 347.24780273 713.02172852 C346.25780273 713.02172852 345.26780273 713.02172852 344.24780273 713.02172852 C344.24780273 714.67172852 344.24780273 716.32172852 344.24780273 718.02172852 C343.25780273 718.02172852 342.26780273 718.02172852 341.24780273 718.02172852 C341.24780273 719.01172852 341.24780273 720.00172852 341.24780273 721.02172852 C340.58780273 721.02172852 339.92780273 721.02172852 339.24780273 721.02172852 C339.24780273 721.68172852 339.24780273 722.34172852 339.24780273 723.02172852 C337.59777446 724.37559787 335.93036403 725.70850994 334.24780273 727.02172852 C333.91780273 727.68172852 333.58780273 728.34172852 333.24780273 729.02172852 C332.58780273 729.02172852 331.92780273 729.02172852 331.24780273 729.02172852 C331.24780273 729.68172852 331.24780273 730.34172852 331.24780273 731.02172852 C330.58780273 731.02172852 329.92780273 731.02172852 329.24780273 731.02172852 C328.91780273 732.01172852 328.58780273 733.00172852 328.24780273 734.02172852 C327.25780273 734.02172852 326.26780273 734.02172852 325.24780273 734.02172852 C325.02092773 735.07360352 324.79405273 736.12547852 324.56030273 737.20922852 C323.43621039 741.18803018 321.45161714 743.37858163 318.24780273 746.02172852 C317.58780273 746.02172852 316.92780273 746.02172852 316.24780273 746.02172852 C315.91780273 747.01172852 315.58780273 748.00172852 315.24780273 749.02172852 C314.58780273 749.02172852 313.92780273 749.02172852 313.24780273 749.02172852 C313.24780273 749.68172852 313.24780273 750.34172852 313.24780273 751.02172852 C311.87280273 752.64672852 311.87280273 752.64672852 310.24780273 754.02172852 C309.58780273 754.02172852 308.92780273 754.02172852 308.24780273 754.02172852 C308.24780273 754.68172852 308.24780273 755.34172852 308.24780273 756.02172852 C305.68633703 758.31821501 304.76812701 759.02172852 301.24780273 759.02172852 C300.91780273 760.01172852 300.58780273 761.00172852 300.24780273 762.02172852 C299.58780273 762.02172852 298.92780273 762.02172852 298.24780273 762.02172852 C298.24780273 762.68172852 298.24780273 763.34172852 298.24780273 764.02172852 C297.58780273 764.02172852 296.92780273 764.02172852 296.24780273 764.02172852 C295.91780273 765.01172852 295.58780273 766.00172852 295.24780273 767.02172852 C294.58780273 767.02172852 293.92780273 767.02172852 293.24780273 767.02172852 C293.24780273 767.68172852 293.24780273 768.34172852 293.24780273 769.02172852 C291.92780273 769.35172852 290.60780273 769.68172852 289.24780273 770.02172852 C288.91780273 771.34172852 288.58780273 772.66172852 288.24780273 774.02172852 C287.25780273 774.02172852 286.26780273 774.02172852 285.24780273 774.02172852 C285.24780273 775.01172852 285.24780273 776.00172852 285.24780273 777.02172852 C283.59780273 777.02172852 281.94780273 777.02172852 280.24780273 777.02172852 C280.24780273 778.01172852 280.24780273 779.00172852 280.24780273 780.02172852 C279.58780273 780.02172852 278.92780273 780.02172852 278.24780273 780.02172852 C278.24780273 780.68172852 278.24780273 781.34172852 278.24780273 782.02172852 C277.25780273 782.02172852 276.26780273 782.02172852 275.24780273 782.02172852 C274.91780273 783.01172852 274.58780273 784.00172852 274.24780273 785.02172852 C273.58780273 785.02172852 272.92780273 785.02172852 272.24780273 785.02172852 C272.24780273 785.68172852 272.24780273 786.34172852 272.24780273 787.02172852 C270.59780273 787.35172852 268.94780273 787.68172852 267.24780273 788.02172852 C267.24780273 788.68172852 267.24780273 789.34172852 267.24780273 790.02172852 C266.58780273 790.02172852 265.92780273 790.02172852 265.24780273 790.02172852 C265.24780273 790.68172852 265.24780273 791.34172852 265.24780273 792.02172852 C264.25780273 792.02172852 263.26780273 792.02172852 262.24780273 792.02172852 C262.24780273 792.68172852 262.24780273 793.34172852 262.24780273 794.02172852 C260.59780273 794.35172852 258.94780273 794.68172852 257.24780273 795.02172852 C256.91780273 796.01172852 256.58780273 797.00172852 256.24780273 798.02172852 C255.58780273 798.02172852 254.92780273 798.02172852 254.24780273 798.02172852 C253.91780273 798.68172852 253.58780273 799.34172852 253.24780273 800.02172852 C252.25780273 800.02172852 251.26780273 800.02172852 250.24780273 800.02172852 C250.24780273 800.68172852 250.24780273 801.34172852 250.24780273 802.02172852 C247.85491362 805.07930905 244.739786 806.46148068 241.24780273 808.02172852 C240.58780273 808.02172852 239.92780273 808.02172852 239.24780273 808.02172852 C239.24780273 808.68172852 239.24780273 809.34172852 239.24780273 810.02172852 C237.59780273 810.35172852 235.94780273 810.68172852 234.24780273 811.02172852 C234.24780273 811.68172852 234.24780273 812.34172852 234.24780273 813.02172852 C233.25780273 813.02172852 232.26780273 813.02172852 231.24780273 813.02172852 C231.24780273 813.68172852 231.24780273 814.34172852 231.24780273 815.02172852 C229.59780273 815.35172852 227.94780273 815.68172852 226.24780273 816.02172852 C226.24780273 816.68172852 226.24780273 817.34172852 226.24780273 818.02172852 C224.59780273 818.02172852 222.94780273 818.02172852 221.24780273 818.02172852 C221.24780273 818.68172852 221.24780273 819.34172852 221.24780273 820.02172852 C219.59780273 820.35172852 217.94780273 820.68172852 216.24780273 821.02172852 C216.24780273 821.68172852 216.24780273 822.34172852 216.24780273 823.02172852 C214.59780273 823.02172852 212.94780273 823.02172852 211.24780273 823.02172852 C210.91780273 824.01172852 210.58780273 825.00172852 210.24780273 826.02172852 C208.92780273 826.02172852 207.60780273 826.02172852 206.24780273 826.02172852 C206.24780273 826.68172852 206.24780273 827.34172852 206.24780273 828.02172852 C205.15467773 828.33110352 204.06155273 828.64047852 202.93530273 828.95922852 C200.69372279 829.60510748 198.46086763 830.28404022 196.24780273 831.02172852 C196.24780273 831.68172852 196.24780273 832.34172852 196.24780273 833.02172852 C194.59780273 833.35172852 192.94780273 833.68172852 191.24780273 834.02172852 C191.24780273 834.68172852 191.24780273 835.34172852 191.24780273 836.02172852 C189.59780273 836.02172852 187.94780273 836.02172852 186.24780273 836.02172852 C186.24780273 836.68172852 186.24780273 837.34172852 186.24780273 838.02172852 C184.26780273 838.35172852 182.28780273 838.68172852 180.24780273 839.02172852 C180.24780273 839.68172852 180.24780273 840.34172852 180.24780273 841.02172852 C178.59780273 841.02172852 176.94780273 841.02172852 175.24780273 841.02172852 C175.24780273 841.68172852 175.24780273 842.34172852 175.24780273 843.02172852 C166.81923131 846.45029994 166.81923131 846.45029994 162.24780273 846.02172852 C162.24780273 846.68172852 162.24780273 847.34172852 162.24780273 848.02172852 C159.53900938 849.37612519 157.23847006 849.08674302 154.24780273 849.02172852 C154.24780273 849.68172852 154.24780273 850.34172852 154.24780273 851.02172852 C151.93780273 851.02172852 149.62780273 851.02172852 147.24780273 851.02172852 C147.24780273 851.68172852 147.24780273 852.34172852 147.24780273 853.02172852 C144.6862859 853.83744069 142.12367645 854.64938982 139.56030273 855.45922852 C138.83907227 855.68932617 138.1178418 855.91942383 137.37475586 856.15649414 C132.24987934 857.77118126 127.66817709 859.02172852 122.24780273 859.02172852 C122.24780273 859.68172852 122.24780273 860.34172852 122.24780273 861.02172852 C121.6097168 861.15450195 120.97163086 861.28727539 120.31420898 861.42407227 C119.48791992 861.60067383 118.66163086 861.77727539 117.81030273 861.95922852 C116.9865918 862.13325195 116.16288086 862.30727539 115.31420898 862.48657227 C113.2711907 862.82925845 113.2711907 862.82925845 112.24780273 864.02172852 C110.72852236 864.09352816 109.20612792 864.10564859 107.68530273 864.08422852 C106.85901367 864.07520508 106.03272461 864.06618164 105.18139648 864.05688477 C104.54331055 864.0452832 103.90522461 864.03368164 103.24780273 864.02172852 C103.24780273 864.68172852 103.24780273 865.34172852 103.24780273 866.02172852 C102.10311523 866.20735352 102.10311523 866.20735352 100.93530273 866.39672852 C93.47716157 867.66082024 86.04435354 869.0346612 78.63452148 870.55688477 C73.47431098 871.56190121 68.34627933 872.25498263 63.11108398 872.74047852 C62.43864655 872.80305344 61.76620911 872.86562836 61.07339478 872.93009949 C58.90264901 873.13059352 56.73156052 873.32686094 54.56030273 873.52172852 C53.81660431 873.58864899 53.07290588 873.65556946 52.30667114 873.72451782 C40.96438442 874.7394127 29.63576119 875.73469743 18.24780273 876.02172852 C17.39686035 876.04364258 16.54591797 876.06555664 15.66918945 876.08813477 C-6.5788568 876.56428343 -28.85036936 874.99334675 -51.00219727 873.02172852 C-51.83452881 872.95099121 -52.66686035 872.88025391 -53.52441406 872.80737305 C-57.63363757 872.40972029 -60.96313968 871.60103319 -64.75219727 870.02172852 C-66.7245832 869.78812157 -68.7061521 869.62384152 -70.68969727 869.52172852 C-75.06781465 869.22237006 -78.61658858 868.52558622 -82.75219727 867.02172852 C-85.41594696 866.5826489 -88.06471905 866.2997435 -90.75219727 866.02172852 C-90.75219727 865.36172852 -90.75219727 864.70172852 -90.75219727 864.02172852 C-91.65969727 864.08360352 -92.56719727 864.14547852 -93.50219727 864.20922852 C-99.08649303 864.24377055 -104.41060358 862.4952716 -109.75219727 861.02172852 C-109.75219727 860.36172852 -109.75219727 859.70172852 -109.75219727 859.02172852 C-112.06219727 859.02172852 -114.37219727 859.02172852 -116.75219727 859.02172852 C-116.75219727 858.36172852 -116.75219727 857.70172852 -116.75219727 857.02172852 C-118.05157227 856.93922852 -119.35094727 856.85672852 -120.68969727 856.77172852 C-125.16988711 856.29346649 -128.57693048 854.89496864 -132.59985352 852.94360352 C-135.65914038 851.63327375 -138.44994597 851.30277118 -141.75219727 851.02172852 C-141.75219727 850.36172852 -141.75219727 849.70172852 -141.75219727 849.02172852 C-143.17532227 849.05266602 -143.17532227 849.05266602 -144.62719727 849.08422852 C-147.75219727 849.02172852 -147.75219727 849.02172852 -149.75219727 848.02172852 C-149.75219727 847.36172852 -149.75219727 846.70172852 -149.75219727 846.02172852 C-151.73219727 846.02172852 -153.71219727 846.02172852 -155.75219727 846.02172852 C-155.75219727 845.36172852 -155.75219727 844.70172852 -155.75219727 844.02172852 C-158.06219727 843.69172852 -160.37219727 843.36172852 -162.75219727 843.02172852 C-162.75219727 842.36172852 -162.75219727 841.70172852 -162.75219727 841.02172852 C-164.40219727 841.02172852 -166.05219727 841.02172852 -167.75219727 841.02172852 C-167.75219727 840.36172852 -167.75219727 839.70172852 -167.75219727 839.02172852 C-169.73219727 838.69172852 -171.71219727 838.36172852 -173.75219727 838.02172852 C-173.75219727 837.36172852 -173.75219727 836.70172852 -173.75219727 836.02172852 C-174.47407227 835.89797852 -175.19594727 835.77422852 -175.93969727 835.64672852 C-178.70941621 835.03123542 -181.14923266 834.13728477 -183.75219727 833.02172852 C-183.75219727 832.36172852 -183.75219727 831.70172852 -183.75219727 831.02172852 C-184.47407227 830.89797852 -185.19594727 830.77422852 -185.93969727 830.64672852 C-188.70941621 830.03123542 -191.14923266 829.13728477 -193.75219727 828.02172852 C-193.75219727 827.36172852 -193.75219727 826.70172852 -193.75219727 826.02172852 C-195.40219727 825.69172852 -197.05219727 825.36172852 -198.75219727 825.02172852 C-198.75219727 824.36172852 -198.75219727 823.70172852 -198.75219727 823.02172852 C-200.40219727 823.02172852 -202.05219727 823.02172852 -203.75219727 823.02172852 C-203.75219727 822.36172852 -203.75219727 821.70172852 -203.75219727 821.02172852 C-205.40219727 820.69172852 -207.05219727 820.36172852 -208.75219727 820.02172852 C-208.75219727 819.36172852 -208.75219727 818.70172852 -208.75219727 818.02172852 C-210.40219727 818.02172852 -212.05219727 818.02172852 -213.75219727 818.02172852 C-213.75219727 817.36172852 -213.75219727 816.70172852 -213.75219727 816.02172852 C-215.40219727 815.69172852 -217.05219727 815.36172852 -218.75219727 815.02172852 C-218.75219727 814.36172852 -218.75219727 813.70172852 -218.75219727 813.02172852 C-219.74219727 813.02172852 -220.73219727 813.02172852 -221.75219727 813.02172852 C-221.75219727 812.36172852 -221.75219727 811.70172852 -221.75219727 811.02172852 C-223.40219727 810.69172852 -225.05219727 810.36172852 -226.75219727 810.02172852 C-226.75219727 809.36172852 -226.75219727 808.70172852 -226.75219727 808.02172852 C-229.40448539 806.94647657 -232.03588181 805.927167 -234.75219727 805.02172852 C-234.75219727 804.36172852 -234.75219727 803.70172852 -234.75219727 803.02172852 C-235.74219727 802.69172852 -236.73219727 802.36172852 -237.75219727 802.02172852 C-237.75219727 801.36172852 -237.75219727 800.70172852 -237.75219727 800.02172852 C-239.07219727 800.02172852 -240.39219727 800.02172852 -241.75219727 800.02172852 C-241.75219727 799.36172852 -241.75219727 798.70172852 -241.75219727 798.02172852 C-242.74219727 798.02172852 -243.73219727 798.02172852 -244.75219727 798.02172852 C-245.74219727 796.53672852 -245.74219727 796.53672852 -246.75219727 795.02172852 C-247.74219727 794.69172852 -248.73219727 794.36172852 -249.75219727 794.02172852 C-249.75219727 793.36172852 -249.75219727 792.70172852 -249.75219727 792.02172852 C-250.74219727 792.02172852 -251.73219727 792.02172852 -252.75219727 792.02172852 C-252.75219727 791.36172852 -252.75219727 790.70172852 -252.75219727 790.02172852 C-253.41219727 790.02172852 -254.07219727 790.02172852 -254.75219727 790.02172852 C-254.75219727 789.36172852 -254.75219727 788.70172852 -254.75219727 788.02172852 C-256.40219727 787.69172852 -258.05219727 787.36172852 -259.75219727 787.02172852 C-259.75219727 786.36172852 -259.75219727 785.70172852 -259.75219727 785.02172852 C-260.74219727 785.02172852 -261.73219727 785.02172852 -262.75219727 785.02172852 C-262.75219727 784.03172852 -262.75219727 783.04172852 -262.75219727 782.02172852 C-263.74219727 782.02172852 -264.73219727 782.02172852 -265.75219727 782.02172852 C-265.75219727 781.36172852 -265.75219727 780.70172852 -265.75219727 780.02172852 C-267.07219727 779.69172852 -268.39219727 779.36172852 -269.75219727 779.02172852 C-269.75219727 778.36172852 -269.75219727 777.70172852 -269.75219727 777.02172852 C-270.74219727 777.02172852 -271.73219727 777.02172852 -272.75219727 777.02172852 C-272.75219727 776.03172852 -272.75219727 775.04172852 -272.75219727 774.02172852 C-273.74219727 774.02172852 -274.73219727 774.02172852 -275.75219727 774.02172852 C-275.75219727 773.36172852 -275.75219727 772.70172852 -275.75219727 772.02172852 C-276.41219727 772.02172852 -277.07219727 772.02172852 -277.75219727 772.02172852 C-277.75219727 771.36172852 -277.75219727 770.70172852 -277.75219727 770.02172852 C-278.74219727 769.69172852 -279.73219727 769.36172852 -280.75219727 769.02172852 C-280.75219727 768.36172852 -280.75219727 767.70172852 -280.75219727 767.02172852 C-281.41219727 767.02172852 -282.07219727 767.02172852 -282.75219727 767.02172852 C-283.08219727 766.36172852 -283.41219727 765.70172852 -283.75219727 765.02172852 C-284.41219727 765.02172852 -285.07219727 765.02172852 -285.75219727 765.02172852 C-285.75219727 764.03172852 -285.75219727 763.04172852 -285.75219727 762.02172852 C-286.74219727 761.69172852 -287.73219727 761.36172852 -288.75219727 761.02172852 C-288.75219727 760.36172852 -288.75219727 759.70172852 -288.75219727 759.02172852 C-289.35032227 758.89797852 -289.94844727 758.77422852 -290.56469727 758.64672852 C-292.75219727 758.02172852 -292.75219727 758.02172852 -295.75219727 756.02172852 C-295.75219727 755.36172852 -295.75219727 754.70172852 -295.75219727 754.02172852 C-296.74219727 753.69172852 -297.73219727 753.36172852 -298.75219727 753.02172852 C-298.75219727 752.36172852 -298.75219727 751.70172852 -298.75219727 751.02172852 C-299.41219727 751.02172852 -300.07219727 751.02172852 -300.75219727 751.02172852 C-300.75219727 750.36172852 -300.75219727 749.70172852 -300.75219727 749.02172852 C-301.74219727 748.69172852 -302.73219727 748.36172852 -303.75219727 748.02172852 C-303.75219727 747.36172852 -303.75219727 746.70172852 -303.75219727 746.02172852 C-304.41219727 746.02172852 -305.07219727 746.02172852 -305.75219727 746.02172852 C-305.75219727 745.36172852 -305.75219727 744.70172852 -305.75219727 744.02172852 C-306.74219727 743.69172852 -307.73219727 743.36172852 -308.75219727 743.02172852 C-308.75219727 742.36172852 -308.75219727 741.70172852 -308.75219727 741.02172852 C-309.41219727 741.02172852 -310.07219727 741.02172852 -310.75219727 741.02172852 C-313.00984113 738.55243054 -314.58096896 736.48190458 -315.75219727 733.33422852 C-316.99584335 730.45829694 -317.95585254 730.25541001 -320.75219727 729.02172852 C-323.00219727 727.02172852 -323.00219727 727.02172852 -324.75219727 725.02172852 C-324.75219727 724.36172852 -324.75219727 723.70172852 -324.75219727 723.02172852 C-326.07219727 722.36172852 -327.39219727 721.70172852 -328.75219727 721.02172852 C-328.75219727 720.03172852 -328.75219727 719.04172852 -328.75219727 718.02172852 C-329.74219727 718.02172852 -330.73219727 718.02172852 -331.75219727 718.02172852 C-331.75219727 717.03172852 -331.75219727 716.04172852 -331.75219727 715.02172852 C-332.41219727 715.02172852 -333.07219727 715.02172852 -333.75219727 715.02172852 C-333.75219727 714.36172852 -333.75219727 713.70172852 -333.75219727 713.02172852 C-334.41219727 712.69172852 -335.07219727 712.36172852 -335.75219727 712.02172852 C-336.37719727 709.95922852 -336.37719727 709.95922852 -336.75219727 708.02172852 C-337.74219727 708.02172852 -338.73219727 708.02172852 -339.75219727 708.02172852 C-339.75219727 707.36172852 -339.75219727 706.70172852 -339.75219727 706.02172852 C-340.98969727 705.37204102 -340.98969727 705.37204102 -342.25219727 704.70922852 C-343.07719727 704.15235352 -343.90219727 703.59547852 -344.75219727 703.02172852 C-345.06469727 700.33422852 -345.06469727 700.33422852 -344.75219727 698.02172852 C-345.41219727 698.02172852 -346.07219727 698.02172852 -346.75219727 698.02172852 C-346.75219727 697.03172852 -346.75219727 696.04172852 -346.75219727 695.02172852 C-347.41219727 695.02172852 -348.07219727 695.02172852 -348.75219727 695.02172852 C-349.08219727 693.37172852 -349.41219727 691.72172852 -349.75219727 690.02172852 C-350.74219727 689.69172852 -351.73219727 689.36172852 -352.75219727 689.02172852 C-352.42219727 688.36172852 -352.09219727 687.70172852 -351.75219727 687.02172852 C-352.74219727 687.02172852 -353.73219727 687.02172852 -354.75219727 687.02172852 C-355.43282227 685.56766602 -355.43282227 685.56766602 -356.12719727 684.08422852 C-357.41005948 680.9509327 -357.41005948 680.9509327 -359.75219727 680.02172852 C-359.75219727 679.03172852 -359.75219727 678.04172852 -359.75219727 677.02172852 C-360.41219727 677.02172852 -361.07219727 677.02172852 -361.75219727 677.02172852 C-362.08219727 675.37172852 -362.41219727 673.72172852 -362.75219727 672.02172852 C-363.41219727 672.02172852 -364.07219727 672.02172852 -364.75219727 672.02172852 C-364.75219727 671.03172852 -364.75219727 670.04172852 -364.75219727 669.02172852 C-365.74219727 668.69172852 -366.73219727 668.36172852 -367.75219727 668.02172852 C-367.75219727 666.70172852 -367.75219727 665.38172852 -367.75219727 664.02172852 C-368.37094727 663.83610352 -368.98969727 663.65047852 -369.62719727 663.45922852 C-372.82077257 661.29886875 -372.9192864 658.6737223 -373.75219727 655.02172852 C-374.24719727 653.53672852 -374.24719727 653.53672852 -374.75219727 652.02172852 C-375.74219727 652.02172852 -376.73219727 652.02172852 -377.75219727 652.02172852 C-377.42219727 651.36172852 -377.09219727 650.70172852 -376.75219727 650.02172852 C-377.08219727 649.69172852 -377.41219727 649.36172852 -377.75219727 649.02172852 C-377.79283559 647.35555736 -377.79491827 645.68784757 -377.75219727 644.02172852 C-378.74219727 643.69172852 -379.73219727 643.36172852 -380.75219727 643.02172852 C-380.42219727 642.36172852 -380.09219727 641.70172852 -379.75219727 641.02172852 C-381.07219727 640.69172852 -382.39219727 640.36172852 -383.75219727 640.02172852 C-383.42219727 638.70172852 -383.09219727 637.38172852 -382.75219727 636.02172852 C-383.41219727 636.02172852 -384.07219727 636.02172852 -384.75219727 636.02172852 C-387.29152006 632.60340937 -388.11581707 630.26395954 -387.75219727 626.02172852 C-388.41219727 626.02172852 -389.07219727 626.02172852 -389.75219727 626.02172852 C-390.24719727 623.05172852 -390.24719727 623.05172852 -390.75219727 620.02172852 C-391.41219727 620.02172852 -392.07219727 620.02172852 -392.75219727 620.02172852 C-393.75856277 617.58668342 -394.7574614 615.14901987 -395.75219727 612.70922852 C-396.03836914 612.01893555 -396.32454102 611.32864258 -396.61938477 610.61743164 C-397.84130471 607.60627178 -398.75219727 605.30285868 -398.75219727 602.02172852 C-399.41219727 602.02172852 -400.07219727 602.02172852 -400.75219727 602.02172852 C-400.75219727 599.71172852 -400.75219727 597.40172852 -400.75219727 595.02172852 C-401.41219727 595.02172852 -402.07219727 595.02172852 -402.75219727 595.02172852 C-403.08219727 592.71172852 -403.41219727 590.40172852 -403.75219727 588.02172852 C-404.41219727 588.02172852 -405.07219727 588.02172852 -405.75219727 588.02172852 C-406.08219727 586.04172852 -406.41219727 584.06172852 -406.75219727 582.02172852 C-407.41219727 583.01172852 -408.07219727 584.00172852 -408.75219727 585.02172852 C-408.94878534 583.60629437 -409.13407272 582.1892882 -409.31469727 580.77172852 C-409.41911133 579.98282227 -409.52352539 579.19391602 -409.63110352 578.38110352 C-409.75247076 576.01639978 -409.44852983 574.27062481 -408.75219727 572.02172852 C-409.74219727 571.69172852 -410.73219727 571.36172852 -411.75219727 571.02172852 C-411.93782227 569.66047852 -411.93782227 569.66047852 -412.12719727 568.27172852 C-412.56201172 565.12145268 -412.56201172 565.12145268 -413.87719727 562.95922852 C-415.05587729 560.34929417 -414.50201306 558.72106537 -413.75219727 556.02172852 C-414.41219727 556.02172852 -415.07219727 556.02172852 -415.75219727 556.02172852 C-415.93395508 555.11680664 -415.93395508 555.11680664 -416.11938477 554.19360352 C-416.37075195 552.99477539 -416.37075195 552.99477539 -416.62719727 551.77172852 C-416.78961914 550.98282227 -416.95204102 550.19391602 -417.11938477 549.38110352 C-417.66225406 547.00559881 -417.66225406 547.00559881 -418.84594727 544.95922852 C-420.27598961 541.90189662 -419.37157341 539.24248448 -418.75219727 536.02172852 C-420.07219727 535.36172852 -421.39219727 534.70172852 -422.75219727 534.02172852 C-422.42219727 530.72172852 -422.09219727 527.42172852 -421.75219727 524.02172852 C-422.41219727 524.02172852 -423.07219727 524.02172852 -423.75219727 524.02172852 C-423.75219727 523.03172852 -423.75219727 522.04172852 -423.75219727 521.02172852 C-424.41219727 520.69172852 -425.07219727 520.36172852 -425.75219727 520.02172852 C-425.09219727 520.02172852 -424.43219727 520.02172852 -423.75219727 520.02172852 C-424.03602673 518.27044034 -424.32959256 516.52072848 -424.62719727 514.77172852 C-424.78961914 513.79719727 -424.95204102 512.82266602 -425.11938477 511.81860352 C-425.59517952 509.07900746 -425.59517952 509.07900746 -426.84594727 507.11547852 C-428.22196966 503.9363923 -427.69315335 501.18405424 -427.37719727 497.77172852 C-427.26633789 496.50844727 -427.15547852 495.24516602 -427.04125977 493.94360352 C-426.94586914 492.97938477 -426.85047852 492.01516602 -426.75219727 491.02172852 C-427.41219727 491.02172852 -428.07219727 491.02172852 -428.75219727 491.02172852 C-430.94257362 487.54289549 -430.55147001 485.94068754 -429.75219727 482.02172852 C-429.67248824 479.8185025 -429.64447415 477.6130917 -429.65454102 475.40844727 C-429.65776367 474.1612793 -429.66098633 472.91411133 -429.66430664 471.62915039 C-429.67268555 470.33557617 -429.68106445 469.04200195 -429.68969727 467.70922852 C-429.69420898 466.39631836 -429.6987207 465.0834082 -429.70336914 463.73071289 C-429.71513778 460.49433841 -429.73157967 457.25805674 -429.75219727 454.02172852 C-430.41219727 454.02172852 -431.07219727 454.02172852 -431.75219727 454.02172852 C-431.75219727 443.13172852 -431.75219727 432.24172852 -431.75219727 421.02172852 C-431.42219727 421.02172852 -431.09219727 421.02172852 -430.75219727 421.02172852 C-430.72714111 420.29058838 -430.70208496 419.55944824 -430.67626953 418.80615234 C-430.55997085 415.48201434 -430.43739799 412.15813611 -430.31469727 408.83422852 C-430.27538086 407.68374023 -430.23606445 406.53325195 -430.19555664 405.34790039 C-430.13271484 403.68017578 -430.13271484 403.68017578 -430.06860352 401.97875977 C-430.0319458 400.95758057 -429.99528809 399.93640137 -429.95751953 398.88427734 C-429.76379664 396.18344388 -429.34767773 393.66006723 -428.75219727 391.02172852 C-429.41219727 390.69172852 -430.07219727 390.36172852 -430.75219727 390.02172852 C-430.42219727 388.37172852 -430.09219727 386.72172852 -429.75219727 385.02172852 C-429.42219727 385.68172852 -429.09219727 386.34172852 -428.75219727 387.02172852 C-428.09219727 387.02172852 -427.43219727 387.02172852 -426.75219727 387.02172852 C-426.84758789 385.74555664 -426.94297852 384.46938477 -427.04125977 383.15454102 C-427.15379237 381.4853074 -427.26574134 379.81603437 -427.37719727 378.14672852 C-427.44165039 377.3049707 -427.50610352 376.46321289 -427.57250977 375.59594727 C-427.62407227 374.7902832 -427.67563477 373.98461914 -427.72875977 373.15454102 C-427.78112793 372.41091309 -427.83349609 371.66728516 -427.88745117 370.90112305 C-427.75219727 369.02172852 -427.75219727 369.02172852 -425.75219727 367.02172852 C-425.42219727 367.02172852 -425.09219727 367.02172852 -424.75219727 367.02172852 C-424.42219727 364.71172852 -424.09219727 362.40172852 -423.75219727 360.02172852 C-424.41219727 359.69172852 -425.07219727 359.36172852 -425.75219727 359.02172852 C-425.75219727 358.36172852 -425.75219727 357.70172852 -425.75219727 357.02172852 C-425.09219727 357.02172852 -424.43219727 357.02172852 -423.75219727 357.02172852 C-423.75219727 355.70172852 -423.75219727 354.38172852 -423.75219727 353.02172852 C-423.09219727 353.02172852 -422.43219727 353.02172852 -421.75219727 353.02172852 C-421.75219727 350.38172852 -421.75219727 347.74172852 -421.75219727 345.02172852 C-422.41219727 344.69172852 -423.07219727 344.36172852 -423.75219727 344.02172852 C-423.09219727 343.69172852 -422.43219727 343.36172852 -421.75219727 343.02172852 C-422.08219727 342.36172852 -422.41219727 341.70172852 -422.75219727 341.02172852 C-422.09219727 341.02172852 -421.43219727 341.02172852 -420.75219727 341.02172852 C-420.09219727 339.04172852 -419.43219727 337.06172852 -418.75219727 335.02172852 C-419.41219727 334.69172852 -420.07219727 334.36172852 -420.75219727 334.02172852 C-420.0309668 333.4397168 -420.0309668 333.4397168 -419.29516602 332.84594727 C-417.29470229 330.48084205 -417.26343658 328.89481399 -417.06469727 325.83422852 C-416.99895508 324.93317383 -416.93321289 324.03211914 -416.86547852 323.10375977 C-416.8280957 322.41668945 -416.79071289 321.72961914 -416.75219727 321.02172852 C-416.42219727 321.68172852 -416.09219727 322.34172852 -415.75219727 323.02172852 C-415.09219727 323.02172852 -414.43219727 323.02172852 -413.75219727 323.02172852 C-413.75219727 321.04172852 -413.75219727 319.06172852 -413.75219727 317.02172852 C-414.41219727 316.69172852 -415.07219727 316.36172852 -415.75219727 316.02172852 C-415.15357984 313.67001721 -414.48295375 311.33579071 -413.75219727 309.02172852 C-413.09219727 308.69172852 -412.43219727 308.36172852 -411.75219727 308.02172852 C-412.08219727 307.03172852 -412.41219727 306.04172852 -412.75219727 305.02172852 C-411.43219727 304.69172852 -410.11219727 304.36172852 -408.75219727 304.02172852 C-408.95844727 303.42360352 -409.16469727 302.82547852 -409.37719727 302.20922852 C-409.75219727 300.02172852 -409.75219727 300.02172852 -407.75219727 297.02172852 C-407.09219727 297.35172852 -406.43219727 297.68172852 -405.75219727 298.02172852 C-405.75219727 295.71172852 -405.75219727 293.40172852 -405.75219727 291.02172852 C-405.09219727 291.02172852 -404.43219727 291.02172852 -403.75219727 291.02172852 C-403.77282227 290.07297852 -403.79344727 289.12422852 -403.81469727 288.14672852 C-403.7317891 284.00132035 -403.7317891 284.00132035 -401.75219727 282.02172852 C-402.16149713 279.96776126 -402.16149713 279.96776126 -402.75219727 278.02172852 C-402.09219727 278.02172852 -401.43219727 278.02172852 -400.75219727 278.02172852 C-400.75219727 275.38172852 -400.75219727 272.74172852 -400.75219727 270.02172852 C-399.76219727 269.69172852 -398.77219727 269.36172852 -397.75219727 269.02172852 C-397.09219727 269.35172852 -396.43219727 269.68172852 -395.75219727 270.02172852 C-395.93782227 269.23797852 -396.12344727 268.45422852 -396.31469727 267.64672852 C-396.75219727 265.02172852 -396.75219727 265.02172852 -395.75219727 263.02172852 C-396.41219727 262.69172852 -397.07219727 262.36172852 -397.75219727 262.02172852 C-396.43219727 262.02172852 -395.11219727 262.02172852 -393.75219727 262.02172852 C-393.42219727 260.70172852 -393.09219727 259.38172852 -392.75219727 258.02172852 C-392.09219727 258.02172852 -391.43219727 258.02172852 -390.75219727 258.02172852 C-390.42219727 256.04172852 -390.09219727 254.06172852 -389.75219727 252.02172852 C-389.09219727 252.02172852 -388.43219727 252.02172852 -387.75219727 252.02172852 C-388.41219727 250.37172852 -389.07219727 248.72172852 -389.75219727 247.02172852 C-387.77219727 246.03172852 -387.77219727 246.03172852 -385.75219727 245.02172852 C-385.97907227 244.42360352 -386.20594727 243.82547852 -386.43969727 243.20922852 C-386.54282227 242.48735352 -386.64594727 241.76547852 -386.75219727 241.02172852 C-385.31469727 239.27172852 -385.31469727 239.27172852 -383.75219727 238.02172852 C-382.76219727 238.35172852 -381.77219727 238.68172852 -380.75219727 239.02172852 C-381.24719727 236.54672852 -381.24719727 236.54672852 -381.75219727 234.02172852 C-379.77219727 233.03172852 -379.77219727 233.03172852 -377.75219727 232.02172852 C-378.41219727 231.69172852 -379.07219727 231.36172852 -379.75219727 231.02172852 C-378.46700161 228.1547536 -377.18090473 226.0456514 -374.75219727 224.02172852 C-374.09219727 224.02172852 -373.43219727 224.02172852 -372.75219727 224.02172852 C-372.75219727 222.70172852 -372.75219727 221.38172852 -372.75219727 220.02172852 C-373.41219727 219.69172852 -374.07219727 219.36172852 -374.75219727 219.02172852 C-373.76219727 218.36172852 -372.77219727 217.70172852 -371.75219727 217.02172852 C-371.75219727 216.03172852 -371.75219727 215.04172852 -371.75219727 214.02172852 C-369.93969727 212.02172852 -369.93969727 212.02172852 -367.75219727 210.02172852 C-367.17469727 209.44422852 -366.59719727 208.86672852 -366.00219727 208.27172852 C-365.58969727 207.85922852 -365.17719727 207.44672852 -364.75219727 207.02172852 C-365.41219727 206.69172852 -366.07219727 206.36172852 -366.75219727 206.02172852 C-366.09219727 205.69172852 -365.43219727 205.36172852 -364.75219727 205.02172852 C-364.09219727 205.35172852 -363.43219727 205.68172852 -362.75219727 206.02172852 C-362.84500977 204.35110352 -362.84500977 204.35110352 -362.93969727 202.64672852 C-362.87782227 201.45047852 -362.81594727 200.25422852 -362.75219727 199.02172852 C-361.76219727 198.36172852 -360.77219727 197.70172852 -359.75219727 197.02172852 C-359.09219727 197.35172852 -358.43219727 197.68172852 -357.75219727 198.02172852 C-357.42219727 196.70172852 -357.09219727 195.38172852 -356.75219727 194.02172852 C-356.09219727 194.02172852 -355.43219727 194.02172852 -354.75219727 194.02172852 C-354.95844727 193.42360352 -355.16469727 192.82547852 -355.37719727 192.20922852 C-355.75219727 190.02172852 -355.75219727 190.02172852 -353.75219727 187.02172852 C-352.43219727 187.35172852 -351.11219727 187.68172852 -349.75219727 188.02172852 C-349.79344727 186.90797852 -349.83469727 185.79422852 -349.87719727 184.64672852 C-349.75219727 181.02172852 -349.75219727 181.02172852 -347.75219727 179.02172852 C-347.42219727 178.03172852 -347.09219727 177.04172852 -346.75219727 176.02172852 C-346.75219727 176.68172852 -346.75219727 177.34172852 -346.75219727 178.02172852 C-346.09219727 178.02172852 -345.43219727 178.02172852 -344.75219727 178.02172852 C-344.08124748 176.67982895 -343.43552141 175.32504162 -342.81469727 173.95922852 C-341.75219727 172.02172852 -341.75219727 172.02172852 -339.75219727 171.02172852 C-339.42219727 170.36172852 -339.09219727 169.70172852 -338.75219727 169.02172852 C-337.31469727 166.89672852 -337.31469727 166.89672852 -335.75219727 165.02172852 C-335.09219727 165.02172852 -334.43219727 165.02172852 -333.75219727 165.02172852 C-333.75219727 164.36172852 -333.75219727 163.70172852 -333.75219727 163.02172852 C-333.09219727 163.02172852 -332.43219727 163.02172852 -331.75219727 163.02172852 C-331.75219727 162.03172852 -331.75219727 161.04172852 -331.75219727 160.02172852 C-331.09219727 160.02172852 -330.43219727 160.02172852 -329.75219727 160.02172852 C-329.75219727 159.03172852 -329.75219727 158.04172852 -329.75219727 157.02172852 C-327.50219727 154.58422852 -327.50219727 154.58422852 -324.75219727 152.02172852 C-323.73125977 150.90797852 -323.73125977 150.90797852 -322.68969727 149.77172852 C-320.65792107 147.93657582 -319.42782726 147.40396137 -316.75219727 147.02172852 C-316.42219727 145.70172852 -316.09219727 144.38172852 -315.75219727 143.02172852 C-315.09219727 143.02172852 -314.43219727 143.02172852 -313.75219727 143.02172852 C-313.75219727 142.03172852 -313.75219727 141.04172852 -313.75219727 140.02172852 C-312.43953209 138.66804255 -311.10652402 137.33373256 -309.75219727 136.02172852 C-309.75219727 135.36172852 -309.75219727 134.70172852 -309.75219727 134.02172852 C-307.75219727 132.39672852 -307.75219727 132.39672852 -305.75219727 131.02172852 C-305.09219727 131.35172852 -304.43219727 131.68172852 -303.75219727 132.02172852 C-304.08219727 131.03172852 -304.41219727 130.04172852 -304.75219727 129.02172852 C-304.09219727 128.69172852 -303.43219727 128.36172852 -302.75219727 128.02172852 C-302.09219727 128.35172852 -301.43219727 128.68172852 -300.75219727 129.02172852 C-300.75219727 128.36172852 -300.75219727 127.70172852 -300.75219727 127.02172852 C-300.09219727 127.02172852 -299.43219727 127.02172852 -298.75219727 127.02172852 C-298.66969727 126.40297852 -298.58719727 125.78422852 -298.50219727 125.14672852 C-297.75219727 123.02172852 -297.75219727 123.02172852 -295.75219727 121.89672852 C-295.09219727 121.60797852 -294.43219727 121.31922852 -293.75219727 121.02172852 C-293.42219727 120.36172852 -293.09219727 119.70172852 -292.75219727 119.02172852 C-292.09219727 119.02172852 -291.43219727 119.02172852 -290.75219727 119.02172852 C-290.75219727 118.36172852 -290.75219727 117.70172852 -290.75219727 117.02172852 C-289.96844727 116.95985352 -289.18469727 116.89797852 -288.37719727 116.83422852 C-287.51094727 116.56610352 -286.64469727 116.29797852 -285.75219727 116.02172852 C-285.06179152 114.36475473 -284.39913377 112.69615241 -283.75219727 111.02172852 C-281.87983653 109.06450157 -279.960525 107.63196749 -277.75219727 106.02172852 C-277.09219727 106.02172852 -276.43219727 106.02172852 -275.75219727 106.02172852 C-275.42219727 105.03172852 -275.09219727 104.04172852 -274.75219727 103.02172852 C-274.09219727 102.36172852 -273.43219727 101.70172852 -272.75219727 101.02172852 C-271.76219727 101.02172852 -270.77219727 101.02172852 -269.75219727 101.02172852 C-269.75219727 100.36172852 -269.75219727 99.70172852 -269.75219727 99.02172852 C-269.13344727 98.95985352 -268.51469727 98.89797852 -267.87719727 98.83422852 C-265.47458585 98.19280951 -265.47458585 98.19280951 -264.50219727 95.45922852 C-264.25469727 94.65485352 -264.00719727 93.85047852 -263.75219727 93.02172852 C-263.09219727 93.02172852 -262.43219727 93.02172852 -261.75219727 93.02172852 C-261.09219727 91.37172852 -260.43219727 89.72172852 -259.75219727 88.02172852 C-259.09219727 88.35172852 -258.43219727 88.68172852 -257.75219727 89.02172852 C-258.08219727 89.68172852 -258.41219727 90.34172852 -258.75219727 91.02172852 C-258.09219727 91.02172852 -257.43219727 91.02172852 -256.75219727 91.02172852 C-256.09219727 89.37172852 -255.43219727 87.72172852 -254.75219727 86.02172852 C-254.09219727 86.02172852 -253.43219727 86.02172852 -252.75219727 86.02172852 C-252.42219727 85.03172852 -252.09219727 84.04172852 -251.75219727 83.02172852 C-250.10219727 83.02172852 -248.45219727 83.02172852 -246.75219727 83.02172852 C-246.75219727 82.36172852 -246.75219727 81.70172852 -246.75219727 81.02172852 C-244.43969727 78.83422852 -244.43969727 78.83422852 -241.75219727 77.02172852 C-240.76219727 77.35172852 -239.77219727 77.68172852 -238.75219727 78.02172852 C-238.75219727 77.36172852 -238.75219727 76.70172852 -238.75219727 76.02172852 C-237.43219727 75.69172852 -236.11219727 75.36172852 -234.75219727 75.02172852 C-235.08219727 74.03172852 -235.41219727 73.04172852 -235.75219727 72.02172852 C-234.43219727 71.36172852 -233.11219727 70.70172852 -231.75219727 70.02172852 C-231.75219727 70.68172852 -231.75219727 71.34172852 -231.75219727 72.02172852 C-231.05094727 71.23797852 -230.34969727 70.45422852 -229.62719727 69.64672852 C-226.63920802 66.91856442 -224.56261215 66.14753291 -220.75219727 65.02172852 C-220.42219727 64.36172852 -220.09219727 63.70172852 -219.75219727 63.02172852 C-217.68969727 62.39672852 -217.68969727 62.39672852 -215.75219727 62.02172852 C-216.41219727 61.36172852 -217.07219727 60.70172852 -217.75219727 60.02172852 C-216.10219727 59.36172852 -214.45219727 58.70172852 -212.75219727 58.02172852 C-212.75219727 58.68172852 -212.75219727 59.34172852 -212.75219727 60.02172852 C-211.43219727 60.02172852 -210.11219727 60.02172852 -208.75219727 60.02172852 C-208.75219727 59.36172852 -208.75219727 58.70172852 -208.75219727 58.02172852 C-207.12666444 56.31491904 -205.46103732 54.64512657 -203.75219727 53.02172852 C-202.10219727 53.68172852 -200.45219727 54.34172852 -198.75219727 55.02172852 C-199.08219727 54.03172852 -199.41219727 53.04172852 -199.75219727 52.02172852 C-199.42219727 51.36172852 -199.09219727 50.70172852 -198.75219727 50.02172852 C-198.09219727 50.35172852 -197.43219727 50.68172852 -196.75219727 51.02172852 C-196.42219727 50.69172852 -196.09219727 50.36172852 -195.75219727 50.02172852 C-194.76219727 49.69172852 -193.77219727 49.36172852 -192.75219727 49.02172852 C-192.09219727 49.35172852 -191.43219727 49.68172852 -190.75219727 50.02172852 C-190.75219727 49.03172852 -190.75219727 48.04172852 -190.75219727 47.02172852 C-187.74187983 46.08749207 -186.88569459 45.97722941 -183.75219727 47.02172852 C-183.75219727 46.36172852 -183.75219727 45.70172852 -183.75219727 45.02172852 C-181.47942976 43.52648674 -179.18420297 42.23773137 -176.75219727 41.02172852 C-175.76219727 41.35172852 -174.77219727 41.68172852 -173.75219727 42.02172852 C-173.42219727 41.03172852 -173.09219727 40.04172852 -172.75219727 39.02172852 C-171.10219727 39.02172852 -169.45219727 39.02172852 -167.75219727 39.02172852 C-167.75219727 38.36172852 -167.75219727 37.70172852 -167.75219727 37.02172852 C-166.10219727 37.02172852 -164.45219727 37.02172852 -162.75219727 37.02172852 C-162.42219727 36.03172852 -162.09219727 35.04172852 -161.75219727 34.02172852 C-159.77219727 34.02172852 -157.79219727 34.02172852 -155.75219727 34.02172852 C-155.42219727 33.03172852 -155.09219727 32.04172852 -154.75219727 31.02172852 C-153.10219727 31.35172852 -151.45219727 31.68172852 -149.75219727 32.02172852 C-149.75219727 31.36172852 -149.75219727 30.70172852 -149.75219727 30.02172852 C-147.04340391 28.66733184 -144.74286459 28.95671401 -141.75219727 29.02172852 C-141.75219727 28.36172852 -141.75219727 27.70172852 -141.75219727 27.02172852 C-139.44219727 27.02172852 -137.13219727 27.02172852 -134.75219727 27.02172852 C-135.08219727 26.03172852 -135.41219727 25.04172852 -135.75219727 24.02172852 C-134.43219727 24.02172852 -133.11219727 24.02172852 -131.75219727 24.02172852 C-131.42219727 23.36172852 -131.09219727 22.70172852 -130.75219727 22.02172852 C-130.42219727 22.35172852 -130.09219727 22.68172852 -129.75219727 23.02172852 C-127.5855306 22.18839518 -127.5855306 22.18839518 -126.75219727 20.02172852 C-126.09219727 20.35172852 -125.43219727 20.68172852 -124.75219727 21.02172852 C-124.75219727 20.36172852 -124.75219727 19.70172852 -124.75219727 19.02172852 C-119.52473867 17.81539192 -114.98691412 18.26560275 -109.75219727 19.02172852 C-109.75219727 18.36172852 -109.75219727 17.70172852 -109.75219727 17.02172852 C-110.41219727 17.02172852 -111.07219727 17.02172852 -111.75219727 17.02172852 C-111.42219727 16.36172852 -111.09219727 15.70172852 -110.75219727 15.02172852 C-110.09219727 15.02172852 -109.43219727 15.02172852 -108.75219727 15.02172852 C-108.75219727 14.69172852 -108.75219727 14.36172852 -108.75219727 14.02172852 C-105.45219727 14.02172852 -102.15219727 14.02172852 -98.75219727 14.02172852 C-98.42219727 13.36172852 -98.09219727 12.70172852 -97.75219727 12.02172852 C-97.09219727 12.35172852 -96.43219727 12.68172852 -95.75219727 13.02172852 C-93.67857738 12.77416407 -93.67857738 12.77416407 -91.75219727 12.02172852 C-91.42219727 11.36172852 -91.09219727 10.70172852 -90.75219727 10.02172852 C-90.09219727 10.35172852 -89.43219727 10.68172852 -88.75219727 11.02172852 C-88.75219727 10.36172852 -88.75219727 9.70172852 -88.75219727 9.02172852 C-84.46219727 9.02172852 -80.17219727 9.02172852 -75.75219727 9.02172852 C-75.42219727 8.03172852 -75.09219727 7.04172852 -74.75219727 6.02172852 C-73.76219727 6.35172852 -72.77219727 6.68172852 -71.75219727 7.02172852 C-71.75219727 7.35172852 -71.75219727 7.68172852 -71.75219727 8.02172852 C-69.77219727 8.02172852 -67.79219727 8.02172852 -65.75219727 8.02172852 C-66.08219727 7.36172852 -66.41219727 6.70172852 -66.75219727 6.02172852 C-62.84739477 4.66309878 -59.04201966 5.1270314 -55.00219727 5.45922852 C-54.30481445 5.51143555 -53.60743164 5.56364258 -52.88891602 5.61743164 C-51.17623523 5.74646923 -49.4641466 5.88332465 -47.75219727 6.02172852 C-47.75219727 5.36172852 -47.75219727 4.70172852 -47.75219727 4.02172852 C-41.39069121 3.3668676 -35.14848705 2.9010438 -28.75219727 3.02172852 C-29.41219727 2.36172852 -30.07219727 1.70172852 -30.75219727 1.02172852 C-29.4877478 1.02958374 -29.4877478 1.02958374 -28.19775391 1.03759766 C-25.07991791 1.05460677 -21.9621055 1.06716257 -18.84423828 1.07666016 C-17.49299341 1.08169908 -16.14175401 1.08853029 -14.79052734 1.09716797 C-12.85199292 1.10925271 -10.91341926 1.1144268 -8.97485352 1.11938477 C-7.80704346 1.12462158 -6.6392334 1.1298584 -5.43603516 1.13525391 C-2.63505277 1.01677334 -2.48481082 0.03081345 0 0 Z M-87.75219727 10.02172852 C-87.75219727 10.35172852 -87.75219727 10.68172852 -87.75219727 11.02172852 C-84.78219727 11.02172852 -81.81219727 11.02172852 -78.75219727 11.02172852 C-78.75219727 10.69172852 -78.75219727 10.36172852 -78.75219727 10.02172852 C-81.72219727 10.02172852 -84.69219727 10.02172852 -87.75219727 10.02172852 Z M91.24780273 10.02172852 C91.24780273 10.35172852 91.24780273 10.68172852 91.24780273 11.02172852 C93.22780273 11.02172852 95.20780273 11.02172852 97.24780273 11.02172852 C97.24780273 10.69172852 97.24780273 10.36172852 97.24780273 10.02172852 C95.26780273 10.02172852 93.28780273 10.02172852 91.24780273 10.02172852 Z M-119.75219727 19.02172852 C-118.75219727 21.02172852 -118.75219727 21.02172852 -118.75219727 21.02172852 Z M-127.75219727 22.02172852 C-126.75219727 24.02172852 -126.75219727 24.02172852 -126.75219727 24.02172852 Z M-250.75219727 84.02172852 C-249.75219727 86.02172852 -249.75219727 86.02172852 -249.75219727 86.02172852 Z M-263.75219727 94.02172852 C-262.75219727 96.02172852 -262.75219727 96.02172852 -262.75219727 96.02172852 Z M-347.75219727 181.02172852 C-348.08219727 181.68172852 -348.41219727 182.34172852 -348.75219727 183.02172852 C-348.09219727 183.02172852 -347.43219727 183.02172852 -346.75219727 183.02172852 C-347.08219727 182.36172852 -347.41219727 181.70172852 -347.75219727 181.02172852 Z M-360.75219727 199.02172852 C-361.08219727 199.68172852 -361.41219727 200.34172852 -361.75219727 201.02172852 C-361.09219727 201.02172852 -360.43219727 201.02172852 -359.75219727 201.02172852 C-360.08219727 200.36172852 -360.41219727 199.70172852 -360.75219727 199.02172852 Z M-368.75219727 212.02172852 C-369.08219727 212.68172852 -369.41219727 213.34172852 -369.75219727 214.02172852 C-369.09219727 214.02172852 -368.43219727 214.02172852 -367.75219727 214.02172852 C-368.08219727 213.36172852 -368.41219727 212.70172852 -368.75219727 212.02172852 Z M-370.75219727 215.02172852 C-369.75219727 217.02172852 -369.75219727 217.02172852 -369.75219727 217.02172852 Z M-384.75219727 240.02172852 C-384.75219727 240.68172852 -384.75219727 241.34172852 -384.75219727 242.02172852 C-384.09219727 242.02172852 -383.43219727 242.02172852 -382.75219727 242.02172852 C-382.75219727 241.36172852 -382.75219727 240.70172852 -382.75219727 240.02172852 C-383.41219727 240.02172852 -384.07219727 240.02172852 -384.75219727 240.02172852 Z M-399.75219727 271.02172852 C-399.75219727 272.67172852 -399.75219727 274.32172852 -399.75219727 276.02172852 C-399.42219727 276.02172852 -399.09219727 276.02172852 -398.75219727 276.02172852 C-398.75219727 274.37172852 -398.75219727 272.72172852 -398.75219727 271.02172852 C-399.08219727 271.02172852 -399.41219727 271.02172852 -399.75219727 271.02172852 Z M-412.75219727 312.02172852 C-411.75219727 314.02172852 -411.75219727 314.02172852 -411.75219727 314.02172852 Z M423.24780273 317.02172852 C423.24780273 317.68172852 423.24780273 318.34172852 423.24780273 319.02172852 C423.90780273 318.69172852 424.56780273 318.36172852 425.24780273 318.02172852 C424.58780273 317.69172852 423.92780273 317.36172852 423.24780273 317.02172852 Z M423.24780273 559.02172852 C424.24780273 561.02172852 424.24780273 561.02172852 424.24780273 561.02172852 Z M351.24780273 703.02172852 C352.24780273 705.02172852 352.24780273 705.02172852 352.24780273 705.02172852 Z " fill="#2479E2" transform="translate(633.752197265625,200.978271484375)"/>
<path d="M0 0 C0 0.66 0 1.32 0 2 C15.61156269 1.89285318 31.22307419 1.78010852 46.83454704 1.66066074 C54.08287813 1.6053329 61.33121413 1.55185163 68.57958984 1.50268555 C74.89571338 1.45983833 81.21180074 1.41355899 87.52786839 1.36312145 C90.87357709 1.33652483 94.21927863 1.31167188 97.56502914 1.29092598 C101.29584531 1.26693072 105.02656538 1.23686951 108.75732422 1.20532227 C110.42967133 1.19668907 110.42967133 1.19668907 112.13580322 1.18788147 C113.14825104 1.17809265 114.16069885 1.16830383 115.2038269 1.15821838 C116.08690458 1.15176583 116.96998226 1.14531328 117.87981987 1.1386652 C120.05515044 1.13404439 120.05515044 1.13404439 122 0 C127.49580044 1.09916009 129.85288517 3.45416747 133 8 C135.18297601 13.11022402 135.28520838 17.6853287 135.26171303 23.14043236 C135.26570909 24.05570047 135.26970515 24.97096857 135.27382231 25.91397208 C135.28482099 28.99139838 135.28159182 32.06864562 135.2784729 35.14608765 C135.28347437 37.37041065 135.28934972 39.59473183 135.29602563 41.81905043 C135.31185765 47.93955031 135.31525808 54.06000432 135.31667423 60.1805222 C135.31998404 66.10038823 135.33263521 72.02022922 135.3450741 77.94008202 C135.37019628 90.04997818 135.38606015 102.15986996 135.39665604 114.26978683 C135.40717823 126.26092852 135.42181014 138.25205357 135.44193649 150.24318314 C135.44318536 150.98862527 135.44443423 151.7340674 135.44572094 152.50209868 C135.45208465 156.28778919 135.45852184 160.07347958 135.46498732 163.85916992 C135.51065565 190.67644966 135.54710088 217.49373481 135.578125 244.31103516 C135.60828647 270.36442862 135.64262386 296.4178111 135.68261719 322.47119141 C135.68384819 323.27420433 135.68507919 324.07721725 135.6863475 324.9045639 C135.69871431 332.96871546 135.71116603 341.03286689 135.72367998 349.09701822 C135.74917063 365.52477125 135.77409445 381.95252513 135.79867554 398.38027954 C135.79980645 399.13560884 135.80093736 399.89093814 135.80210253 400.66915621 C135.87756372 451.11275814 135.93976989 501.55637784 136 552 C137.33333333 552.33333333 138.66666667 552.66666667 140 553 C141.33333333 553.33333333 142.66666667 553.66666667 144 554 C144 554.66 144 555.32 144 556 C181.1310055 555.8954015 218.26199224 555.78562633 255.39296161 555.66888306 C259.77401856 555.65511305 264.15507564 555.64138602 268.53613281 555.62768555 C269.40834308 555.62495724 270.28055336 555.62222894 271.17919424 555.61941796 C285.31231149 555.57531162 299.44543673 555.53468877 313.57856795 555.49534739 C328.07439858 555.45491907 342.57021437 555.41076093 357.06602311 555.36312145 C366.01474363 555.33383022 374.96346302 555.30746784 383.91220286 555.28482103 C390.04400586 555.26902476 396.17579069 555.24961413 402.30757353 555.22733159 C405.84823402 555.21457269 409.38888054 555.20343584 412.9295578 555.19658089 C416.76424163 555.18911518 420.5988738 555.17405316 424.43353271 555.15821838 C426.12029102 555.15675122 426.12029102 555.15675122 427.84112525 555.15525442 C428.86624095 555.14977998 429.89135665 555.14430554 430.94753647 555.1386652 C431.83304428 555.13600716 432.71855209 555.13334911 433.63089347 555.13061053 C435.9956225 555.0927779 435.9956225 555.0927779 438.15562272 554.35461468 C438.76426722 554.23759183 439.37291173 554.12056899 440 554 C443.9940734 557.40957485 447.33115049 560.99345147 449 566 C449.10691745 568.86883538 449.15726438 571.71373087 449.16113281 574.58300781 C449.16609772 575.45977676 449.17106262 576.33654572 449.17617798 577.23988342 C449.19079816 580.14430524 449.19760195 583.04867241 449.203125 585.953125 C449.20887729 587.9723104 449.21463501 589.99149578 449.22039795 592.01068115 C449.23090802 596.24752049 449.23675041 600.48434086 449.24023438 604.72119141 C449.24571415 610.14281677 449.26973118 615.56419036 449.29820633 620.98573685 C449.31685776 625.15853602 449.32203968 629.33127491 449.32357025 633.50411224 C449.32659246 635.50234094 449.3346064 637.50056869 449.34775543 639.49875641 C449.36486553 642.29916856 449.36292335 645.09897042 449.35644531 647.89941406 C449.3656601 648.7204512 449.37487488 649.54148834 449.3843689 650.3874054 C449.339195 656.64113091 448.18500274 661.3920935 444.0625 666.3125 C439.67804681 669.89977988 436.07618535 670.28901911 430.51236916 670.25447559 C429.75147157 670.25768207 428.99057399 670.26088855 428.20661891 670.26419219 C425.64219702 670.27253174 423.07800628 670.26655414 420.51358032 670.26069641 C418.66236732 670.2637153 416.81115557 670.26760345 414.95994604 670.27228898 C409.86123912 670.28261169 404.76260218 670.28037632 399.66388941 670.27610838 C394.16957997 670.27364888 388.67528771 670.28264566 383.1809845 670.29014587 C372.41244809 670.30291666 361.64393659 670.3046836 350.87539388 670.30234561 C342.12506012 670.30056491 333.37473394 670.30230676 324.62440109 670.30657005 C323.38053819 670.30716524 322.13667529 670.30776043 320.85511958 670.30837366 C318.3284671 670.30958537 315.80181462 670.3107995 313.27516215 670.31201603 C296.30189307 670.31980719 279.32862672 670.32371962 262.35535622 670.31969929 C261.35937289 670.31946472 261.35937289 670.31946472 260.3432687 670.31922542 C256.97778914 670.31841962 253.6123096 670.31757385 250.24683006 670.31671212 C249.57841669 670.31654103 248.91000333 670.31636994 248.22133501 670.31619367 C246.8696401 670.31584702 245.51794518 670.31549849 244.16625027 670.31514808 C223.13295235 670.30979064 202.09969635 670.317721 181.06640625 670.33618164 C157.4434834 670.3568908 133.82058064 670.36759531 110.1976465 670.36360615 C97.68677887 670.36169104 85.17594944 670.36421178 72.66508865 670.37832069 C62.01427855 670.39021008 51.36353014 670.39166691 40.71271922 670.37953053 C35.27609262 670.37362458 29.83957902 670.37258964 24.40295982 670.38453293 C19.42879601 670.3953335 14.45484031 670.39235818 9.48068647 670.37827124 C7.67855789 670.37560817 5.8764133 670.37804096 4.07430036 670.38600711 C1.62905149 670.39606827 -0.81546766 670.38772999 -3.26068687 670.37473011 C-3.96413251 670.38203946 -4.66757814 670.3893488 -5.3923403 670.39687964 C-11.47729342 670.32959609 -15.31405581 668.49861706 -19.8125 664.5 C-22.73634472 661.15846318 -23.12491424 658.76392153 -23.1276505 654.47931355 C-23.13066647 653.54525468 -23.13368244 652.6111958 -23.1367898 651.64883211 C-23.13502033 650.61881239 -23.13325086 649.58879267 -23.13142776 648.52756023 C-23.1334804 647.43183013 -23.13553303 646.33610003 -23.13764787 645.20716599 C-23.14334849 641.4977747 -23.14185686 637.78842019 -23.14044189 634.07902527 C-23.14302377 631.4078402 -23.1459974 628.73665816 -23.1494453 626.06547433 C-23.15703659 619.46988367 -23.15921893 612.8743011 -23.15977435 606.27870652 C-23.16068687 598.38186687 -23.16735105 590.48503474 -23.17412117 582.58819832 C-23.19019456 563.50052036 -23.1960858 544.41284319 -23.20086992 525.32515968 C-23.20320435 516.2993684 -23.20680681 507.27357776 -23.2105653 498.24778698 C-23.22340147 467.3646432 -23.23412102 436.48149978 -23.2375679 405.59835339 C-23.23778954 403.65906313 -23.23801132 401.71977287 -23.23823325 399.78048261 C-23.2384539 397.83645307 -23.23867438 395.89242354 -23.2388947 393.948394 C-23.23933726 390.04819691 -23.23978437 386.14799982 -23.24023438 382.24780273 C-23.24039846 380.79726546 -23.24039846 380.79726546 -23.24056586 379.3174244 C-23.2441978 347.95022906 -23.26012266 316.58305682 -23.28342474 285.21587033 C-23.30800384 252.06920391 -23.32173983 218.92255071 -23.32293582 185.77587491 C-23.32310728 182.13937938 -23.32332271 178.50288385 -23.32357025 174.86638832 C-23.32362602 173.97095085 -23.32368179 173.07551338 -23.32373925 172.15294144 C-23.32489132 157.72420037 -23.33592649 143.29548295 -23.35045731 128.86674987 C-23.36480192 114.37263948 -23.36807082 99.8785595 -23.36001733 85.38444396 C-23.35555156 76.76734941 -23.35945939 68.1503528 -23.37525584 59.53327106 C-23.38497571 53.7818074 -23.38385636 48.03041268 -23.37381961 42.27894972 C-23.36840585 38.99888446 -23.36942945 35.71904652 -23.38032833 32.4389893 C-23.39131921 28.90914088 -23.38400504 25.37979689 -23.3719368 21.84996319 C-23.38332959 20.31546886 -23.38332959 20.31546886 -23.39495254 18.74997464 C-23.34880358 12.54080217 -22.56081335 8.25136975 -18.609375 3.234375 C-13.23158662 -0.89033648 -6.37651995 -1.52481999 0 0 Z " fill="#F9FCFE" transform="translate(443,294)"/>
<path d="M0 0 C37.03763058 -0.04573731 74.07525691 -0.08099878 111.11291 -0.10213066 C115.48152338 -0.10463219 119.8501367 -0.10722083 124.21875 -0.10986328 C125.08849428 -0.1103879 125.95823856 -0.11091252 126.85433872 -0.11145304 C140.95325716 -0.12016527 155.05215935 -0.13593972 169.15106814 -0.15430559 C183.60845543 -0.17298193 198.06583419 -0.18411191 212.52323306 -0.18817699 C221.45048883 -0.19092677 230.37769871 -0.19962425 239.30494036 -0.21583293 C245.41943421 -0.22637188 251.5339042 -0.22960767 257.64840649 -0.22700275 C261.18075058 -0.22571662 264.71301423 -0.22774389 268.24534416 -0.23841095 C272.06759494 -0.24986979 275.88973946 -0.24599773 279.71200562 -0.24050903 C280.83844589 -0.24633472 281.96488616 -0.2521604 283.12546098 -0.25816262 C284.14311119 -0.25418052 285.1607614 -0.25019842 286.2092495 -0.24609566 C287.53409373 -0.24723482 287.53409373 -0.24723482 288.88570249 -0.24839699 C291 0 291 0 293 2 C292 3 292 3 290.00348896 3.1241985 C289.11684199 3.12381878 288.23019502 3.12343906 287.31667995 3.12304783 C286.2975374 3.12503888 285.27839484 3.12702993 284.22836918 3.12908131 C283.09512512 3.12616847 281.96188105 3.12325563 280.79429626 3.12025452 C279.60104455 3.12110894 278.40779284 3.12196337 277.17838198 3.12284368 C273.85136008 3.12421188 270.52439628 3.12106437 267.19738138 3.11606562 C263.61522505 3.11176446 260.03307066 3.11320731 256.45091248 3.1139679 C250.23962411 3.11449334 244.02834621 3.11134437 237.81706047 3.10573006 C228.83648162 3.09761787 219.85590786 3.09500013 210.87532575 3.09374207 C196.30644802 3.0915511 181.73757587 3.08488982 167.16870117 3.07543945 C153.01277698 3.06626648 138.8568543 3.05918509 124.70092773 3.05493164 C123.82898775 3.05466892 122.95704776 3.05440619 122.05868535 3.05413551 C117.68460719 3.05283051 113.31052902 3.05156679 108.93645084 3.05032361 C72.62429661 3.03994961 36.31214874 3.02233009 0 3 C0 2.01 0 1.02 0 0 Z " fill="#82C6F1" transform="translate(587,847)"/>
<path d="M0 0 C39.6 0 79.2 0 120 0 C120.495 1.485 120.495 1.485 121 3 C81.07 3 41.14 3 0 3 C0 2.01 0 1.02 0 0 Z " fill="#82C6F1" transform="translate(443,293)"/>
<path d="M0 0 C0.66 0.33 1.32 0.66 2 1 C-0.64 3.64 -3.28 6.28 -6 9 C-6 6 -6 6 -4.6875 4.39453125 C-4.130625 3.87246094 -3.57375 3.35039062 -3 2.8125 C-2.443125 2.28269531 -1.88625 1.75289063 -1.3125 1.20703125 C-0.6628125 0.60955078 -0.6628125 0.60955078 0 0 Z " fill="#216DD9" transform="translate(343,315)"/>
<path d="M0 0 C0.66 0.33 1.32 0.66 2 1 C0.35 2.32 -1.3 3.64 -3 5 C-1.125 1.125 -1.125 1.125 0 0 Z " fill="#247AE3" transform="translate(319,339)"/>
<path d="M0 0 C0.33 0 0.66 0 1 0 C1 2.31 1 4.62 1 7 C0.67 7 0.34 7 0 7 C0 4.69 0 2.38 0 0 Z " fill="#247AE3" transform="translate(202,656)"/>
<path d="M0 0 C1.98 0 3.96 0 6 0 C6 0.33 6 0.66 6 1 C4.02 1 2.04 1 0 1 C0 0.67 0 0.34 0 0 Z " fill="#247AE3" transform="translate(696,205)"/>
<path d="M0 0 C0.33 0 0.66 0 1 0 C1 1.65 1 3.3 1 5 C0.67 5 0.34 5 0 5 C0 3.35 0 1.7 0 0 Z " fill="#247AE3" transform="translate(215,526)"/>
<path d="M0 0 C0.66 0.33 1.32 0.66 2 1 C0.68 1.33 -0.64 1.66 -2 2 C-1.34 1.34 -0.68 0.68 0 0 Z " fill="#247AE3" transform="translate(227,490)"/>
<path d="M0 0 C0.66 0.33 1.32 0.66 2 1 C1.01 1.66 0.02 2.32 -1 3 C-0.67 2.01 -0.34 1.02 0 0 Z " fill="#247AE3" transform="translate(295,366)"/>
<path d="M0 0 C0.66 0.33 1.32 0.66 2 1 C1.01 1.66 0.02 2.32 -1 3 C-0.67 2.01 -0.34 1.02 0 0 Z " fill="#247AE3" transform="translate(322,336)"/>
<path d="M0 0 C1.32 0.33 2.64 0.66 4 1 C2.68 1.33 1.36 1.66 0 2 C0 1.34 0 0.68 0 0 Z " fill="#247AE3" transform="translate(471,233)"/>
<path d="M0 0 C1 4 1 4 1 4 Z " fill="#247AE3" transform="translate(215,749)"/>
<path d="M0 0 C0 3 0 3 0 3 Z " fill="#247AE3" transform="translate(299,362)"/>
<path d="M0 0 C0.66 0.66 1.32 1.32 2 2 C1.01 1.67 0.02 1.34 -1 1 C-0.67 0.67 -0.34 0.34 0 0 Z " fill="#247AE3" transform="translate(358,301)"/>
<path d="M0 0 C0.66 0.33 1.32 0.66 2 1 C1.01 1 0.02 1 -1 1 C-0.67 0.67 -0.34 0.34 0 0 Z " fill="#247AE3" transform="translate(363,298)"/>
<path d="M0 0 C0.99 0 1.98 0 3 0 C2.67 0.66 2.34 1.32 2 2 C1.34 1.34 0.68 0.68 0 0 Z " fill="#247AE3" transform="translate(439,248)"/>
<path d="M0 0 C0.66 0.33 1.32 0.66 2 1 C1.01 1 0.02 1 -1 1 C-0.67 0.67 -0.34 0.34 0 0 Z " fill="#247AE3" transform="translate(491,226)"/>
<path d="" fill="#1434AF" transform="translate(0,0)"/>
<path d="" fill="#247AE3" transform="translate(0,0)"/>
<path d="M0 0 C0.99 0.495 0.99 0.495 2 1 C1.01 1.495 1.01 1.495 0 2 C0 1.34 0 0.68 0 0 Z " fill="#247AE3" transform="translate(289,374)"/>
<path d="" fill="#247AE3" transform="translate(0,0)"/>
<path d="M0 0 C3 1 3 1 3 1 Z " fill="#247AE3" transform="translate(305,353)"/>
<path d="" fill="#247AE3" transform="translate(0,0)"/>
<path d="M0 0 C3 1 3 1 3 1 Z " fill="#247AE3" transform="translate(387,279)"/>
<path d="M0 0 C0.99 0.495 0.99 0.495 2 1 C1.01 1.495 1.01 1.495 0 2 C0 1.34 0 0.68 0 0 Z " fill="#1E62D1" transform="translate(407,266)"/>
<path d="M0 0 C0.99 0.495 0.99 0.495 2 1 C1.01 1.495 1.01 1.495 0 2 C0 1.34 0 0.68 0 0 Z " fill="#247AE3" transform="translate(414,262)"/>
<path d="" fill="#247AE3" transform="translate(0,0)"/>
<path d="M0 0 C3 1 3 1 3 1 Z " fill="#1E62D1" transform="translate(758,218)"/>
<path d="M0 0 C0.66 0 1.32 0 2 0 C1.67 0.66 1.34 1.32 1 2 C0.67 1.34 0.34 0.68 0 0 Z " fill="#247AE3" transform="translate(679,202)"/>
<path d="" fill="#247AE3" transform="translate(0,0)"/>
<path d="" fill="#247AE3" transform="translate(0,0)"/>
<path d="" fill="#247AE3" transform="translate(0,0)"/>
<path d="" fill="#247AE3" transform="translate(0,0)"/>
<path d="" fill="#247AE3" transform="translate(0,0)"/>
<path d="" fill="#247AE3" transform="translate(0,0)"/>
<path d="" fill="#247AE3" transform="translate(0,0)"/>
<path d="" fill="#247AE3" transform="translate(0,0)"/>
<path d="M0 0 C2 1 2 1 2 1 Z " fill="#247AE3" transform="translate(202,593)"/>
<path d="" fill="#247AE3" transform="translate(0,0)"/>
<path d="M0 0 C2 1 2 1 2 1 Z " fill="#247AE3" transform="translate(228,484)"/>
<path d="" fill="#247AE3" transform="translate(0,0)"/>
<path d="" fill="#247AE3" transform="translate(0,0)"/>
<path d="M0 0 C2 1 2 1 2 1 Z " fill="#247AE3" transform="translate(239,458)"/>
<path d="" fill="#247AE3" transform="translate(0,0)"/>
<path d="" fill="#247AE3" transform="translate(0,0)"/>
<path d="M0 0 C2 1 2 1 2 1 Z " fill="#247AE3" transform="translate(257,422)"/>
<path d="M0 0 C2 1 2 1 2 1 Z " fill="#247AE3" transform="translate(287,376)"/>
<path d="M0 0 C2 1 2 1 2 1 Z " fill="#247AE3" transform="translate(307,351)"/>
<path d="M0 0 C2 1 2 1 2 1 Z " fill="#247AE3" transform="translate(310,348)"/>
<path d="M0 0 C2 1 2 1 2 1 Z " fill="#247AE3" transform="translate(331,325)"/>
<path d="" fill="#247AE3" transform="translate(0,0)"/>
<path d="" fill="#247AE3" transform="translate(0,0)"/>
<path d="M0 0 C2 1 2 1 2 1 Z " fill="#247AE3" transform="translate(376,287)"/>
<path d="M0 0 C2 1 2 1 2 1 Z " fill="#247AE3" transform="translate(396,274)"/>
<path d="" fill="#247AE3" transform="translate(0,0)"/>
<path d="M0 0 C2 1 2 1 2 1 Z " fill="#247AE3" transform="translate(861,261)"/>
<path d="M0 0 C2 1 2 1 2 1 Z " fill="#247AE3" transform="translate(423,256)"/>
<path d="M0 0 C2 1 2 1 2 1 Z " fill="#247AE3" transform="translate(828,243)"/>
<path d="M0 0 C2 1 2 1 2 1 Z " fill="#247AE3" transform="translate(449,243)"/>
<path d="" fill="#247AE3" transform="translate(0,0)"/>
<path d="M0 0 C2 1 2 1 2 1 Z " fill="#247AE3" transform="translate(459,238)"/>
<path d="M0 0 C2 1 2 1 2 1 Z " fill="#247AE3" transform="translate(803,233)"/>
<path d="M0 0 C2 1 2 1 2 1 Z " fill="#247AE3" transform="translate(797,230)"/>
<path d="M0 0 C2 1 2 1 2 1 Z " fill="#247AE3" transform="translate(482,230)"/>
<path d="M0 0 C2 1 2 1 2 1 Z " fill="#247AE3" transform="translate(477,230)"/>
<path d="M0 0 C2 1 2 1 2 1 Z " fill="#247AE3" transform="translate(784,225)"/>
<path d="M0 0 C2 1 2 1 2 1 Z " fill="#247AE3" transform="translate(495,225)"/>
<path d="M0 0 C2 1 2 1 2 1 Z " fill="#247AE3" transform="translate(564,207)"/>
<path d="M0 0 C2 1 2 1 2 1 Z " fill="#247AE3" transform="translate(600,202)"/>
<path d="M0 0 C2 1 2 1 2 1 Z " fill="#247AE3" transform="translate(595,202)"/>
<path d="" fill="#247AE3" transform="translate(0,0)"/>
<path d="" fill="#1434AF" transform="translate(0,0)"/>
<path d="" fill="#247AE3" transform="translate(0,0)"/>
<path d="" fill="#82C6F1" transform="translate(0,0)"/>
<path d="" fill="#247AE3" transform="translate(0,0)"/>
<path d="" fill="#247AE3" transform="translate(0,0)"/>
<path d="" fill="#247AE3" transform="translate(0,0)"/>
<path d="" fill="#247AE3" transform="translate(0,0)"/>
<path d="" fill="#247AE3" transform="translate(0,0)"/>
<path d="" fill="#82C6F1" transform="translate(0,0)"/>
<path d="" fill="#247AE3" transform="translate(0,0)"/>
<path d="" fill="#1434AF" transform="translate(0,0)"/>
<path d="" fill="#247AE3" transform="translate(0,0)"/>
<path d="" fill="#247AE3" transform="translate(0,0)"/>
<path d="" fill="#247AE3" transform="translate(0,0)"/>
<path d="" fill="#1434AF" transform="translate(0,0)"/>
<path d="" fill="#247AE3" transform="translate(0,0)"/>
<path d="" fill="#247AE3" transform="translate(0,0)"/>
<path d="" fill="#247AE3" transform="translate(0,0)"/>
<path d="" fill="#247AE3" transform="translate(0,0)"/>
<path d="" fill="#247AE3" transform="translate(0,0)"/>
<path d="" fill="#247AE3" transform="translate(0,0)"/>
<path d="" fill="#1434AF" transform="translate(0,0)"/>
<path d="" fill="#247AE3" transform="translate(0,0)"/>
<path d="" fill="#247AE3" transform="translate(0,0)"/>
<path d="" fill="#247AE3" transform="translate(0,0)"/>
<path d="" fill="#247AE3" transform="translate(0,0)"/>
<path d="" fill="#247AE3" transform="translate(0,0)"/>
<path d="" fill="#247AE3" transform="translate(0,0)"/>
<path d="" fill="#247AE3" transform="translate(0,0)"/>
<path d="" fill="#247AE3" transform="translate(0,0)"/>
<path d="" fill="#247AE3" transform="translate(0,0)"/>
<path d="" fill="#247AE3" transform="translate(0,0)"/>
<path d="" fill="#247AE3" transform="translate(0,0)"/>
<path d="" fill="#247AE3" transform="translate(0,0)"/>
<path d="" fill="#247AE3" transform="translate(0,0)"/>
<path d="" fill="#247AE3" transform="translate(0,0)"/>
<path d="" fill="#247AE3" transform="translate(0,0)"/>
<path d="" fill="#247AE3" transform="translate(0,0)"/>
<path d="" fill="#247AE3" transform="translate(0,0)"/>
<path d="" fill="#247AE3" transform="translate(0,0)"/>
<path d="" fill="#247AE3" transform="translate(0,0)"/>
<path d="" fill="#247AE3" transform="translate(0,0)"/>
<path d="" fill="#247AE3" transform="translate(0,0)"/>
<path d="" fill="#247AE3" transform="translate(0,0)"/>
<path d="" fill="#247AE3" transform="translate(0,0)"/>
<path d="" fill="#82C6F1" transform="translate(0,0)"/>
<path d="" fill="#247AE3" transform="translate(0,0)"/>
<path d="" fill="#247AE3" transform="translate(0,0)"/>
<path d="" fill="#247AE3" transform="translate(0,0)"/>
<path d="" fill="#247AE3" transform="translate(0,0)"/>
<path d="" fill="#247AE3" transform="translate(0,0)"/>
<path d="" fill="#247AE3" transform="translate(0,0)"/>
<path d="" fill="#247AE3" transform="translate(0,0)"/>
<path d="" fill="#247AE3" transform="translate(0,0)"/>
<path d="" fill="#247AE3" transform="translate(0,0)"/>
<path d="" fill="#247AE3" transform="translate(0,0)"/>
<path d="" fill="#1434AF" transform="translate(0,0)"/>
<path d="" fill="#247AE3" transform="translate(0,0)"/>
<path d="" fill="#247AE3" transform="translate(0,0)"/>
<path d="" fill="#247AE3" transform="translate(0,0)"/>
<path d="" fill="#247AE3" transform="translate(0,0)"/>
<path d="" fill="#247AE3" transform="translate(0,0)"/>
<path d="" fill="#247AE3" transform="translate(0,0)"/>
<path d="" fill="#247AE3" transform="translate(0,0)"/>
<path d="" fill="#247AE3" transform="translate(0,0)"/>
<path d="" fill="#247AE3" transform="translate(0,0)"/>
<path d="" fill="#247AE3" transform="translate(0,0)"/>
<path d="" fill="#247AE3" transform="translate(0,0)"/>
<path d="" fill="#247AE3" transform="translate(0,0)"/>
<path d="" fill="#247AE3" transform="translate(0,0)"/>
<path d="" fill="#247AE3" transform="translate(0,0)"/>
<path d="" fill="#247AE3" transform="translate(0,0)"/>
<path d="" fill="#247AE3" transform="translate(0,0)"/>
<path d="" fill="#247AE3" transform="translate(0,0)"/>
<path d="" fill="#247AE3" transform="translate(0,0)"/>
<path d="" fill="#247AE3" transform="translate(0,0)"/>
<path d="" fill="#247AE3" transform="translate(0,0)"/>
<path d="" fill="#247AE3" transform="translate(0,0)"/>
<path d="" fill="#247AE3" transform="translate(0,0)"/>
<path d="" fill="#247AE3" transform="translate(0,0)"/>
<path d="" fill="#247AE3" transform="translate(0,0)"/>
<path d="" fill="#247AE3" transform="translate(0,0)"/>
<path d="" fill="#247AE3" transform="translate(0,0)"/>
<path d="" fill="#1434AF" transform="translate(0,0)"/>
<path d="" fill="#247AE3" transform="translate(0,0)"/>
<path d="" fill="#247AE3" transform="translate(0,0)"/>
<path d="" fill="#247AE3" transform="translate(0,0)"/>
<path d="" fill="#247AE3" transform="translate(0,0)"/>
<path d="" fill="#247AE3" transform="translate(0,0)"/>
<path d="" fill="#247AE3" transform="translate(0,0)"/>
<path d="" fill="#247AE3" transform="translate(0,0)"/>
<path d="" fill="#247AE3" transform="translate(0,0)"/>
</svg>
